<svg xmlns="http://www.w3.org/2000/svg" viewBox="0 0 67 46" width="67" height="46" aria-label="Atruvia VIA mark"><path fill="#000064" d="M51.518 16.986H42.413v-2.439C42.413 9.395 46.223 5.658 51.48 5.658H63.536V0H51.48C43.011 0 36.588 6.278 36.588 14.507v2.481H29.86V.319H3.481v5.336H24.036v11.331H14.93C6.224 16.986 0 23.494 0 31.493 0 39.736 6.224 46 14.93 46c8.507 0 14.93-6.264 14.93-14.491v-8.864h6.727v8.864C36.587 39.736 43.01 46 51.517 46c8.706 0 14.93-6.264 14.93-14.508 0-8-6.224-14.507-14.93-14.507M24.036 31.493c0 5.106-3.81 8.848-9.106 8.848-5.492 0-9.105-3.739-9.105-8.848 0-4.876 3.611-8.848 9.105-8.848h9.106v8.848zM51.518 40.34c-5.296 0-9.106-3.738-9.106-8.847v-8.848h9.106c5.492 0 9.105 3.97 9.105 8.848 0 5.106-3.611 8.847-9.105 8.847"></path></svg>