<?xml version="1.0" encoding="UTF-8" standalone="no"?>


<svg version="1.1" id="svg2" width="115.10826" height="31.542265" viewBox="0 0 115.10826 31.542265" xmlns="http://www.w3.org/2000/svg">
  <defs id="defs6">
    <clipPath clipPathUnits="userSpaceOnUse" id="clipPath18">
      <path d="M 0,0 H 566.929 V 737.008 H 0 Z" id="path16"></path>
    </clipPath>
    <clipPath clipPathUnits="userSpaceOnUse" id="clipPath44">
      <path d="m 440.406,664.159 h 110.003 v 67.894 H 440.406 Z" id="path42"></path>
    </clipPath>
    <clipPath clipPathUnits="userSpaceOnUse" id="clipPath102">
      <path d="M 0,0 H 566.929 V 737.008 H 0 Z" id="path100"></path>
    </clipPath>
  </defs>
  <namedview id="namedview4" pagecolor="#505050" bordercolor="#eeeeee" borderopacity="1" showgrid="false"></namedview>
  <g id="g8" transform="matrix(1.3333333,0,0,-1.3333333,-602.99892,932.85944)">
    <path d="m 503.095,675.988 h 35.485 v 23.656 h -35.485 z" style="fill:#ffffff;fill-opacity:1;fill-rule:nonzero;stroke:none" id="path32"></path>
    <g id="g34" transform="translate(503.0957,680.1279)">
      <path d="M 0,0 V -4.14 H 14.284 L 13.352,0 Z" style="fill:#f25c19;fill-opacity:1;fill-rule:nonzero;stroke:none" id="path36"></path>
    </g>
    <g id="g38">
      <g id="g40" clip-path="url(#clipPath44)">
        <g id="g46" transform="translate(538.5804,675.9881)">
          <path d="M 0,0 V 4.14 H -13.596 C -13.959,2.23 -14.267,0.63 -14.385,0 Z" style="fill:#f25c19;fill-opacity:1;fill-rule:nonzero;stroke:none" id="path48"></path>
        </g>
        <g id="g50" transform="translate(510.2649,689.9546)">
          <path d="m 0,0 -1.018,4.305 h 8.687 l 2.813,-12.358 h 0.12 l 1.772,7.917 c 0.894,3.593 1.231,4.441 6.264,4.441 h 3.62 c 0,0 -0.732,-3.313 -1.64,-6.909 -0.348,-1.371 -3.37,-1.209 -3.219,0.072 0.016,0.133 0.159,1.097 0.272,1.783 0.164,0.988 -0.982,1.11 -1.188,0.134 -0.147,-0.699 -0.811,-4.172 -1.432,-7.438 H 28.315 V 9.69 H -7.169 V -8.053 H 5.789 l -1.804,8.047 z" style="fill:#1c63b7;fill-opacity:1;fill-rule:nonzero;stroke:none" id="path52"></path>
        </g>
        <g id="g54" transform="translate(455.4782,684.4338)">
          <path d="m 0,0 c 0.325,0 0.627,-0.023 0.952,-0.023 h 0.186 c 0.79,0 1.765,0.023 2.532,0.442 0.604,0.301 0.766,0.65 0.906,0.882 0.116,0.186 0.255,0.604 0.255,1.092 0,0.279 -0.023,1.533 -1.347,2.114 C 2.834,4.786 2.207,4.808 1.556,4.808 H 0 Z m 0,7.247 c 0.325,0 0.627,-0.023 0.952,-0.023 1.417,0 2.3,0.116 2.904,0.813 0.325,0.372 0.441,0.906 0.441,1.277 0,0.465 -0.139,0.813 -0.232,0.976 C 3.6,11.103 2.717,11.382 1.347,11.382 0.859,11.382 0.511,11.359 0,11.359 Z m 1.742,6.62 c 1.068,0 2.276,0 3.321,-0.418 C 5.249,13.379 5.993,13.1 6.596,12.427 7.107,11.87 7.595,11.033 7.595,9.733 7.595,8.896 7.409,7.852 6.504,7.038 6.248,6.806 6.109,6.737 5.853,6.574 5.714,6.504 5.319,6.295 4.947,6.202 4.599,6.086 4.483,6.086 4.158,6.039 4.994,5.97 5.598,5.9 6.434,5.366 6.504,5.319 6.898,5.064 7.2,4.738 8.199,3.671 8.199,2.3 8.199,2.068 8.199,0.767 7.711,-0.138 7.293,-0.673 5.83,-2.509 3.577,-2.509 1.997,-2.531 h -5.226 v 16.398 z" style="fill:#1c63b7;fill-opacity:1;fill-rule:nonzero;stroke:none" id="path56"></path>
        </g>
        <g id="g58" transform="translate(471.0134,689.3351)">
          <path d="m 0,0 c 0.279,-0.859 0.465,-1.44 0.72,-2.276 0.255,-0.813 0.418,-1.394 0.65,-2.206 0.488,1.602 0.837,2.717 1.324,4.319 L 5.621,8.966 H 8.873 L 3.275,-7.433 H -0.767 L -6.434,8.966 h 3.507 z" style="fill:#1c63b7;fill-opacity:1;fill-rule:nonzero;stroke:none" id="path60"></path>
        </g>
        <g id="g62" transform="translate(485.131,691.3091)">
          <path d="m 0,0 c 0.511,-0.023 0.999,-0.023 1.51,-0.023 0.836,0 1.974,0 2.694,1.069 C 4.343,1.278 4.576,1.742 4.553,2.323 4.553,2.88 4.367,3.299 4.204,3.53 3.809,4.088 3.182,4.367 2.16,4.414 1.928,4.414 1.789,4.437 1.579,4.437 H 0 Z m 9.082,-9.407 h -3.67 l -1.58,4.111 C 3.345,-4.111 3.089,-3.414 2.485,-2.949 2.253,-2.764 2.044,-2.717 1.812,-2.647 1.51,-2.578 0.859,-2.578 0.046,-2.578 V -9.407 H -3.275 V 6.992 h 5.04 c 1.44,-0.024 3.809,0 5.18,-1.44 C 7.154,5.343 7.34,5.064 7.479,4.808 7.99,3.902 7.99,2.904 7.99,2.649 7.99,1.092 7.293,0.07 6.48,-0.51 6.341,-0.603 6.225,-0.696 5.969,-0.813 5.435,-1.068 4.947,-1.138 4.413,-1.184 4.483,-1.208 4.762,-1.231 5.017,-1.301 5.853,-1.602 6.295,-2.647 6.573,-3.275 Z" style="fill:#1c63b7;fill-opacity:1;fill-rule:nonzero;stroke:none" id="path64"></path>
        </g>
      </g>
    </g>
  </g>
</svg>