<svg xmlns="http://www.w3.org/2000/svg" viewBox="0 0 300 29"><path d="M8.7 3A6 6 0 006 2.5c-.2 0-1.2 0-2 .5l-.6.4c-.6.5-1.1 1.5-1.1 3 0 .1 0 .7.2 1.3.5 1.6 1.8 2 2.3 2.2l1.1.1 1.3-.2V7.1H5V5.4h4.2V11l-1 .3c-.5.1-1.4.3-2.6.3-2.1 0-3.5-.7-4.3-1.6C.6 9.3 0 8 0 6.2 0 5 .3 3.2 1.8 2c.6-.5 1.4-.9 2-1 1-.3 2-.3 2.2-.3 1.5 0 2.2.3 2.9.5L8.7 3zm4 5.3l.3.7c.5.9 1.4 1 2.1 1 .6 0 1.2 0 1.8-.4.3 0 .6-.3.6-.3v1.8c-.5.2-1.3.5-2.6.5-.3 0-1 0-1.8-.2-1.3-.5-2.4-1.6-2.4-3.8 0-1 .3-1.6.4-2l.3-.5.3-.4c.6-.7 1.5-1.2 2.8-1.2 2.6 0 3.6 1.8 3.6 4v.8h-5.4zm3.5-1.5c0-.4 0-.8-.4-1.3-.4-.6-1-.6-1.3-.6 0 0-1 0-1.4.8-.3.5-.4 1-.4 1.1h3.5zm8.6 4.7V7.7c0-1 0-1.4-.2-1.9-.2-.2-.3-.4-.6-.5l-.6-.1c-.2 0-.6 0-1 .3-.8.6-.8 1.4-.8 2.3v3.7h-2v-6l-.1-1.9h2v1.2l.2-.3c.3-.4.7-.5.8-.6.6-.3 1-.4 1.6-.4.8 0 1.3.2 1.6.4.1.1.4.2.6.7.5.6.5 1.4.6 2.9v4h-2zm9.5-7.7c1.6.8 2 2.3 2.1 2.7l.2 1c0 2.2-1.3 3.4-2.5 3.9-.7.2-1.4.2-1.6.2-.5 0-1 0-1.5-.2a3.9 3.9 0 01-2.6-3.9c0-1.4.6-2.4 1.2-3l.7-.5c.4-.2 1.2-.5 2.2-.5.6 0 1.2 0 1.8.3zm-2.4 1.3c-.3 0-.5.2-.6.3-.4.4-.7 1.1-.7 2.1 0 .9.3 1.6.5 2l.6.4.8.2c.6 0 1-.3 1.2-.5.4-.4.7-1 .7-2.2 0-.6 0-1.3-.7-2-.2-.2-.6-.4-1.2-.4h-.6zm10.9.2c-.6-.2-1.1-.3-1.7-.3-.8 0-1.4.3-1.4.8 0 .2 0 .3.2.4l1 .5c.5.1.9.2 1 .4 1.4.5 1.4 1.8 1.4 2 0 .5-.1 1-.5 1.4-.5.6-1.1.9-1.3 1l-1.5.1c-.8 0-1.4-.1-2.2-.3V9.6c.4.1 1.1.5 2 .5.8 0 1.4-.4 1.4-.9s-.6-.7-1-.8c-.7-.3-1.4-.4-2-1a2 2 0 01-.5-1.5c0-.5.1-1 .6-1.6 1-.8 2.4-.8 2.5-.8.8 0 1.4.1 2.1.3l-.1 1.5zm6.8 0c-.6-.2-1-.3-1.7-.3-.8 0-1.4.3-1.4.8 0 .2 0 .3.2.4l1 .5c.5.1.9.2 1.1.4 1.3.5 1.3 1.8 1.3 2 0 .5-.1 1-.5 1.4-.5.6-1 .9-1.3 1l-1.4.1c-.9 0-1.5-.1-2.3-.3V9.6c.4.1 1.1.5 2 .5.9 0 1.4-.4 1.4-.9s-.6-.7-1-.8c-.7-.3-1.4-.4-2-1a2 2 0 01-.5-1.5c0-.5.1-1 .7-1.6.9-.8 2.3-.8 2.5-.8.7 0 1.3.1 2 .3l-.1 1.5zm3.5 3l.3.7c.5.9 1.5 1 2.1 1 .6 0 1.3 0 1.9-.4l.6-.3v1.8c-.6.2-1.4.5-2.7.5-.2 0-1 0-1.8-.2-1.2-.5-2.3-1.6-2.3-3.8 0-1 .2-1.6.4-2l.2-.5.3-.4c.6-.7 1.5-1.2 2.9-1.2 2.5 0 3.5 1.8 3.5 4v.8H53zm3.5-1.5c0-.4 0-.8-.4-1.3-.4-.6-1-.6-1.2-.6-.2 0-1 0-1.5.8-.3.5-.3 1-.4 1.1h3.5zm8.8 4.7V7.7c0-1 0-1.4-.3-1.9l-.5-.5-.6-.1c-.2 0-.6 0-1 .3-.8.6-.8 1.4-.9 2.3v3.7h-2v-6-1.9H62v1.2l.3-.3c.3-.4.6-.5.7-.6.6-.3 1.1-.4 1.7-.4.8 0 1.2.2 1.5.4.2.1.4.2.7.7.5.6.5 1.4.5 2.9v4h-2zM74 5.3c-.6-.2-1-.3-1.6-.3-.9 0-1.5.3-1.5.8l.2.4 1 .5c.6.1 1 .2 1.1.4 1.3.5 1.3 1.8 1.3 2 0 .5 0 1-.4 1.4-.5.6-1.1.9-1.3 1l-1.5.1c-.9 0-1.4-.1-2.3-.3l.1-1.7c.4.1 1 .5 2 .5.8 0 1.4-.4 1.4-.9s-.6-.7-1-.8c-.8-.3-1.5-.4-2-1a2 2 0 01-.6-1.5c0-.5.2-1 .7-1.6 1-.8 2.4-.8 2.5-.8.7 0 1.3.1 2 .3v1.5zm7.2 0L80 5.2a2 2 0 00-2.1 1.4l-.2 1c0 .6.2 1.3.6 1.8.6.5 1.2.7 1.7.7.7 0 1.1-.2 1.4-.4l.1 1.7c-.3.1-1 .3-1.9.3-1.4 0-2.3-.5-3-1.1v-.2l-.7-1c-.3-.8-.3-1.5-.3-1.8 0-1.3.4-2 .9-2.6.4-.6 1-.8 1.1-1l1.2-.3 1-.1c.7 0 1.2.2 1.5.3l-.1 1.6zM85 0v4.8c0-.2.2-.4.5-.6.8-.7 1.8-.7 2-.7a3 3 0 011.6.4c1 .7 1.2 1.9 1.2 3.7v3.9h-2v-4c0-.5 0-1.3-.4-1.8a1 1 0 00-.4-.4c-.3-.2-.6-.2-.7-.2-.7 0-1.2.4-1.4.8-.4.6-.4 1.5-.4 2.2v3.4h-2V0h2zm12 11.5v-1.2c-.1.2-.3.6-.8.9-.6.3-1.2.4-1.8.4-2.2 0-2.7-1.4-2.6-2.4 0-.8.3-1.4.7-1.7.6-.6 1.7-.9 3.3-.9H97c0-.3 0-.7-.3-1-.2-.4-.6-.6-1.3-.7h-.1c-.8 0-1.3.3-1.7.4l-.7.5-.1-1.8c.6-.2 1.3-.5 2.7-.5.8 0 1.7 0 2.5.7.2.2.5.5.7 1 .2.5.2 1.3.2 1.9v4.4H97zm-.8-3.6c-1 0-1.9.2-2.2.8l-.2.5c0 .4.3 1 1.3 1 .4 0 1.6-.2 1.8-1.7V8h-.7zm9-6.1l-.5-.1a1 1 0 00-.8.2c-.3.4-.4 1-.4 1.7h1.8v1.6h-1.8v6.3h-2V5.2h-1.6V3.6h1.6c0-.6 0-1.4.2-2 .3-.8.8-1.1 1.2-1.3.6-.3 1.2-.3 1.4-.3l1.1.1-.1 1.7zm4.3 1.8h1.8v1.6h-1.8v3.4c0 .7.3 1.3 1.2 1.3l.7-.1v1.6a5 5 0 01-1.3.2c-.8 0-1.5-.3-1.8-.6-.4-.3-.7-.8-.8-1.7V5.2H106V3.6h1.5V2.1l2-.7v2.2zm5.3-3.6v11.5h-2V0h2zm4 .3v1.9h-2V.3h2zm0 3.3v7.9h-2V3.6h2zm7.2 1.8c-.2-.1-.6-.3-1.2-.3a2 2 0 00-2 1.4l-.2 1c0 .6 0 1.3.6 1.8.5.5 1.1.7 1.7.7.6 0 1-.2 1.3-.4l.2 1.7c-.4.1-1 .3-2 .3-1.4 0-2.3-.5-2.9-1.1l-.1-.2c-.4-.4-.6-1-.6-1-.3-.8-.3-1.5-.3-1.8 0-1.3.4-2 .8-2.6.5-.6 1-.8 1.1-1l1.3-.3.9-.1c.7 0 1.2.2 1.6.3l-.2 1.6zm3.8-5.4v4.8c.1-.2.2-.4.6-.6.8-.7 1.7-.7 2-.7a3 3 0 011.6.4c1 .7 1.1 1.9 1.1 3.7v3.9h-2v-4c0-.5 0-1.3-.3-1.8a1 1 0 00-.5-.4l-.6-.2c-.8 0-1.2.4-1.5.8-.4.6-.4 1.5-.4 2.2v3.4h-2V0h2zm9 8.3s0 .4.2.7c.5.9 1.4 1 2 1 .7 0 1.3 0 2-.4.2 0 .5-.3.5-.3v1.8c-.5.2-1.3.5-2.7.5-.2 0-1 0-1.7-.2-1.3-.5-2.4-1.6-2.4-3.8 0-1 .3-1.6.4-2l.3-.5.3-.4c.6-.7 1.4-1.2 2.8-1.2 2.6 0 3.6 1.8 3.6 4v.8h-5.4zm3.4-1.5c0-.4 0-.8-.4-1.3-.5-.6-1-.6-1.3-.6 0 0-1 0-1.4.8-.3.5-.4 1-.4 1.1h3.5zM155.9 1v1.8h-3.7v2.5h3.5V7h-3.5v4.5H150V.9h5.9zm3.3-.6v1.9h-2V.3h2zm0 3.3v7.9h-2V3.6h2zm7.2 7.9V7.7c0-1 0-1.4-.3-1.9-.1-.2-.3-.4-.6-.5l-.6-.1c-.1 0-.6 0-1 .3-.7.6-.8 1.4-.8 2.3v3.7h-2v-6l-.1-1.9h2v1.2l.3-.3c.3-.4.6-.5.7-.6.6-.3 1-.4 1.7-.4s1.2.2 1.5.4c.2.1.4.2.7.7.4.6.5 1.4.5 2.9v4h-2zm8.7 0v-1.2c-.1.2-.3.6-.9.9-.5.3-1.1.4-1.7.4-2.2 0-2.7-1.4-2.7-2.4 0-.8.4-1.4.8-1.7.6-.6 1.7-.9 3.3-.9h1.1c0-.3 0-.7-.3-1-.2-.4-.6-.6-1.3-.7h-.2c-.7 0-1.2.3-1.6.4l-.8.5V4c.6-.2 1.3-.5 2.7-.5.7 0 1.7 0 2.5.7.2.2.5.5.7 1 .2.5.2 1.3.2 1.9v4.4h-1.8zm-.8-3.6c-1.1 0-2 .2-2.3.8v.5c0 .4.2 1 1.2 1 .4 0 1.6-.2 1.8-1.7V8h-.7zm10 3.6V7.7c0-1-.1-1.4-.3-1.9-.2-.2-.3-.4-.6-.5l-.6-.1c-.2 0-.6 0-1 .3-.8.6-.8 1.4-.8 2.3v3.7h-2v-6l-.2-1.9h2v1.2l.3-.3c.3-.4.7-.5.8-.6.6-.3 1-.4 1.6-.4.8 0 1.2.2 1.6.4.1.1.4.2.6.7.5.6.5 1.4.5 2.9v4h-2zm9.9-6.2l-4 4.6h4.1v1.6h-6.5V9.9l4-4.7H188V3.6h6.2v1.7zm10-2.2a6 6 0 00-2.7-.7c-.2 0-1.2 0-2 .5l-.6.4c-.7.5-1.2 1.5-1.1 3 0 .1 0 .7.2 1.3.5 1.6 1.8 2 2.3 2.2l1 .1 1.4-.2V7.1h-2.2V5.4h4.2V11l-1 .3c-.5.1-1.4.3-2.6.3-2.1 0-3.5-.7-4.3-1.6-.7-.7-1.3-2-1.3-3.8 0-1.3.3-3 1.8-4.2.6-.5 1.4-.9 2-1 1-.3 2-.3 2.2-.3 1.5 0 2.2.3 2.9.5l-.2 1.9zm7.1 2.4l-.6-.1c-.2 0-1.4 0-1.8 1.3l-.2.9v3.8h-2V5.8v-2h1.8v1.8l.3-.8a2.2 2.2 0 012.5-1.1v1.9zm3.3-1.9v4c0 .8 0 1.8.7 2.2l.8.2c.5 0 1-.3 1.2-.5l.3-.6.3-1.5V3.6h2v7.9h-1.8v-1.3l-.7.8c-.4.3-1 .6-2 .6s-1.7-.4-2.1-.8c-.8-.8-.8-2-.8-2.8V3.6h2zm9.3 11.1h-2v-9-2h1.9v1.1l.7-.7a3.1 3.1 0 013.4-.3c1 .6 1.7 1.8 1.7 3.6 0 1-.2 2.5-1.1 3.4a3.2 3.2 0 01-3.7.4l-.6-.4-.3-.4v4.3zm1.3-9.4c-.8.3-1.3 1-1.3 2.3 0 1 .3 1.8 1 2.2l.8.2c.1 0 .6 0 1-.4.7-.5.8-1.6.8-2.1 0-.6-.2-1.7-1-2.2a1.7 1.7 0 00-1.3 0zm8 9.4h-2v-9-2h1.9v1.1l.7-.7a3.1 3.1 0 013.4-.3c1 .6 1.7 1.8 1.7 3.6 0 1-.2 2.5-1.1 3.4a3.2 3.2 0 01-3.7.4l-.6-.4-.3-.4v4.3zm1.3-9.4c-.7.3-1.3 1-1.3 2.3 0 1 .4 1.8 1 2.2l.8.2c.2 0 .6 0 1-.4.7-.5.8-1.6.8-2.1 0-.6-.2-1.7-1-2.2a1.7 1.7 0 00-1.3 0zm7.5 3l.3.7c.5.9 1.5 1 2.1 1 .6 0 1.3 0 1.9-.4l.6-.3v1.8c-.6.2-1.4.5-2.7.5-.2 0-1 0-1.8-.2-1.2-.5-2.3-1.6-2.3-3.8 0-1 .2-1.6.4-2l.2-.5.3-.4c.6-.7 1.5-1.2 2.9-1.2 2.5 0 3.5 1.8 3.5 4v.8H242zm3.5-1.5c0-.4 0-.8-.4-1.3-.4-.6-1-.6-1.2-.6-.2 0-1 0-1.5.8-.3.5-.3 1-.4 1.1h3.5zM31.5 23l.5 1.4.4 1.4.8-2.7 2-6h2l-3.6 10.6H31l-3.7-10.5h2.3l1.9 5.8zm11.6-3c1.7.8 2 2.3 2.2 2.7v1.1c0 2.2-1.2 3.4-2.4 3.8-.7.3-1.4.3-1.6.3-.5 0-1 0-1.5-.2a3.9 3.9 0 01-2.6-4c0-1.3.6-2.3 1.2-2.9.3-.3.6-.5.8-.5.4-.3 1.1-.6 2.1-.6.6 0 1.3.2 1.8.4zm-2.4 1.4c-.2 0-.5.2-.5.3-.5.4-.8 1-.8 2s.3 1.7.6 2l.5.5.8.2c.6 0 1-.3 1.2-.5.5-.4.7-1.1.7-2.2 0-.6 0-1.4-.6-2-.3-.2-.7-.5-1.3-.5-.2 0-.4 0-.6.2zm8.3-5.1v11.4h-2V16.3h2zm4 6.8l.8-1 1.8-2.2h2.3L55 23.4l3.3 4.3h-2.5L54 25.4l-1-1.5v3.8h-2V16.3h2v6.8zm11.1-1.5c-.6-.2-1-.3-1.7-.3-.8 0-1.4.3-1.4.8 0 .1 0 .3.2.4l1 .5 1.1.3c1.3.6 1.3 1.8 1.3 2 0 .5-.1 1-.5 1.5-.4.6-1 .8-1.2.9-.7.2-1.3.2-1.5.2-.9 0-1.4-.2-2.3-.4v-1.7c.4.2 1.1.5 2 .5.9 0 1.4-.3 1.4-.8s-.6-.7-1-.8c-.7-.3-1.4-.5-2-1.1a2 2 0 01-.5-1.4c0-.5.1-1 .7-1.6.9-.9 2.3-.8 2.5-.8.7 0 1.3.1 2 .3l-.1 1.5zm4-5.3v4.8l.4-.5c.4-.4 1.1-.8 2-.8a3 3 0 013 2.2c.2.4.3 1 .3 1.7 0 1.7-.5 2.8-1.3 3.5l-.6.4c-.6.3-1.2.3-1.4.3-1 0-1.7-.4-2.1-.9l-.3-.5v1.2h-2V16.3h2zm1.3 5.2c-1 .5-1.2 1.7-1.2 2.4 0 .4 0 .9.3 1.3l.3.6c.5.5 1 .5 1.2.5.1 0 .5 0 1-.4.6-.5.7-1.5.7-2.1 0-.5 0-1-.3-1.5 0-.2-.2-.4-.3-.5a1.6 1.6 0 00-1.7-.3zm10.7 6.2v-1.1c0 .2-.3.5-.8.9-.6.3-1.2.4-1.8.4-2.1 0-2.6-1.5-2.6-2.4 0-.9.3-1.4.7-1.7.7-.6 1.7-.9 3.3-.9h1.2c0-.3 0-.8-.3-1.1-.3-.3-.6-.6-1.3-.6h-.2c-.8 0-1.3.2-1.6.4l-.8.4v-1.7c.6-.3 1.3-.5 2.6-.6.8 0 1.8.1 2.5.8.2.2.5.5.7 1 .2.5.2 1.3.2 1.8v4.4h-1.8zm-.8-3.5c-1 0-1.9.1-2.2.7l-.1.5c0 .5.3 1.1 1.2 1.1.5 0 1.6-.3 1.9-1.7v-.6h-.8zm9.9 3.5V24c0-1 0-1.5-.3-1.9-.1-.3-.3-.4-.5-.6h-.6c-.2 0-.6 0-1 .3-.8.5-.8 1.4-.9 2.3v3.6h-2v-6V20h1.9v1.2l.3-.3c.3-.4.6-.6.7-.6.6-.3 1.1-.4 1.7-.4.7 0 1.2.2 1.5.4.2 0 .4.2.7.6.5.7.5 1.5.5 3v4h-2zm6-4.6l.8-1 1.7-2.2h2.4l-3 3.5 3.4 4.3H98l-1.8-2.3-1-1.5v3.8h-2V16.3h2v6.8zm7.7 1.4s0 .5.3.8c.5.9 1.4 1 2 1 .7 0 1.3 0 1.9-.4l.6-.3v1.7c-.6.3-1.4.6-2.7.6-.2 0-1 0-1.7-.3-1.3-.4-2.4-1.6-2.4-3.7 0-1 .2-1.6.4-2l.2-.5.3-.4c.6-.7 1.5-1.3 3-1.3 2.5 0 3.4 2 3.4 4v.8H103zm3.5-1.4c0-.4-.1-.9-.4-1.3-.5-.6-1.1-.6-1.3-.6-.1 0-1 0-1.5.7-.3.5-.3 1-.3 1.2h3.5zm9 4.6V24c0-1 0-1.5-.2-1.9l-.6-.6h-.6c-.1 0-.6 0-1 .3-.7.5-.8 1.4-.8 2.3v3.6h-2v-6L110 20h2v1.2l.2-.3c.3-.4.7-.6.8-.6.6-.3 1-.4 1.6-.4.8 0 1.3.2 1.6.4.1 0 .4.2.7.6.4.7.4 1.5.5 3v4h-2zm16.6 0h-2.4l-1-2.6c-.3-.8-.5-1.2-.9-1.5l-.4-.2h-1.1v4.3H124V17.2h3.3c.9 0 2.4 0 3.3.9.1.1.3.3.3.5.4.6.4 1.2.4 1.4 0 1-.5 1.6-1 2l-.3.2c-.4.2-.7.2-1 .2l.4.1c.5.2.8.9 1 1.3l1.6 4zm-5.9-6h1c.5 0 1.3 0 1.7-.7.1-.1.3-.4.3-.8s-.2-.6-.3-.8c-.2-.4-.6-.5-1.3-.6h-1.4v2.9zm11.9 6v-1.1l-.9.9c-.6.3-1.2.4-1.7.4-2.2 0-2.7-1.5-2.7-2.4 0-.9.4-1.4.8-1.7.6-.6 1.7-.9 3.2-.9h1.1c0-.3 0-.8-.2-1.1-.2-.3-.6-.6-1.3-.6h-.2c-.7 0-1.3.2-1.6.4l-.8.4v-1.7c.6-.3 1.3-.5 2.6-.6.8 0 1.8.1 2.6.8.1.2.5.5.6 1 .2.5.2 1.3.2 1.8v4.4H138zm-.9-3.5c-1 0-1.8.1-2.2.7l-.1.5c0 .5.3 1.1 1.2 1.1.5 0 1.7-.3 1.9-1.7v-.6h-.8zm6.7-7.6v1.9h-2v-2h2zm0 3.3v7.8h-2V20h2zm6.5-1.9h-.5a1 1 0 00-.8.2c-.4.4-.4.9-.4 1.7h1.7v1.5h-1.7v6.3h-2v-6.3H145V20h1.6c0-.6 0-1.4.2-2 .2-.8.7-1.2 1.1-1.4.6-.2 1.3-.2 1.5-.2l1 .1V18zm6.3 0h-.6a1 1 0 00-.8.2c-.3.4-.4.9-.4 1.7h1.8v1.5h-1.8v6.3h-2v-6.3h-1.5V20h1.5c0-.6 0-1.4.2-2 .3-.8.8-1.2 1.2-1.4.6-.2 1.2-.2 1.4-.2l1.1.1-.1 1.6zm3 6.5s0 .5.3.8c.5.9 1.4 1 2 1 .7 0 1.3 0 2-.4.2 0 .5-.3.5-.3v1.7c-.5.3-1.3.6-2.7.6-.2 0-1 0-1.7-.3-1.3-.4-2.4-1.6-2.4-3.7 0-1 .2-1.6.4-2l.3-.5.3-.4c.5-.7 1.4-1.3 2.8-1.3 2.6 0 3.6 2 3.6 4v.8h-5.4zm3.5-1.4c0-.4 0-.9-.4-1.3-.5-.6-1-.6-1.3-.6 0 0-1 0-1.4.7-.4.5-.4 1-.4 1.2h3.5zm5.5-6.5v1.9h-2v-2h2zm0 3.3v7.8h-2V20h2zm6.8 1.7c-.6-.2-1-.3-1.7-.3-.8 0-1.4.3-1.4.8 0 .1 0 .3.2.4l1 .5 1.1.3c1.3.6 1.3 1.8 1.3 2 0 .5-.1 1-.5 1.5-.4.6-1 .8-1.2.9-.6.2-1.3.2-1.5.2-.9 0-1.4-.2-2.3-.4l.1-1.7c.4.2 1 .5 2 .5.8 0 1.4-.3 1.4-.8s-.6-.7-1-.8c-.8-.3-1.5-.5-2-1.1a2 2 0 01-.6-1.4c0-.5.2-1 .7-1.6 1-.9 2.3-.8 2.5-.8.7 0 1.3.1 2 .3v1.5zm3.6 3s0 .4.2.7c.6.9 1.5 1 2.1 1 .6 0 1.3 0 1.9-.4l.6-.3v1.7c-.6.3-1.4.6-2.7.6-.2 0-1 0-1.8-.3-1.2-.4-2.3-1.6-2.3-3.7 0-1 .2-1.6.4-2l.2-.5.3-.4c.6-.7 1.5-1.3 2.9-1.3 2.5 0 3.5 2 3.5 4v.8H179zm3.5-1.5c0-.4-.1-.9-.4-1.3-.5-.6-1.1-.6-1.3-.6-.1 0-1 0-1.5.7-.3.5-.3 1-.3 1.2h3.5zm9 4.6V24c0-1 0-1.5-.2-1.9l-.6-.6h-.6c-.2 0-.6 0-1 .3-.8.5-.8 1.4-.8 2.3v3.6h-2v-6l-.1-1.8h2v1.2c0-.1 0-.2.2-.3.3-.4.7-.6.8-.6.6-.3 1-.4 1.6-.4.8 0 1.3.2 1.6.4.1 0 .4.2.6.6.5.7.5 1.5.6 3v4h-2zm6.1-11.4v4.8l.4-.5c.4-.4 1-.8 2-.8a3 3 0 013 2.2c.2.4.3 1 .3 1.7 0 1.7-.6 2.8-1.3 3.5l-.7.4c-.5.3-1.2.3-1.3.3-1 0-1.7-.4-2.1-.9l-.3-.5v1.2h-2V16.3h2zm1.3 5.2c-1 .5-1.3 1.7-1.3 2.4 0 .4.1.9.3 1.3l.4.6c.5.5 1 .5 1.2.5 0 0 .5 0 .9-.4.6-.5.8-1.5.8-2.1 0-.5 0-1-.3-1.5l-.3-.5a1.6 1.6 0 00-1.7-.3zm10.7 6.2v-1.1c-.1.2-.3.5-.8.9-.6.3-1.2.4-1.8.4-2.2 0-2.7-1.5-2.6-2.4 0-.9.3-1.4.7-1.7.6-.6 1.7-.9 3.3-.9h1.1c0-.3 0-.8-.3-1.1-.2-.3-.6-.6-1.3-.6h-.1c-.8 0-1.3.2-1.7.4-.1 0-.4.1-.7.4l-.1-1.7c.6-.3 1.3-.5 2.7-.6.8 0 1.7.1 2.5.8.2.2.5.5.7 1 .2.5.2 1.3.2 1.8v4.4h-1.8zm-.8-3.5c-1 0-1.9.1-2.2.7l-.2.5c0 .5.3 1.1 1.3 1.1.4 0 1.6-.3 1.8-1.7v-.6h-.7zm9.9 3.5V24c0-1 0-1.5-.3-1.9-.1-.3-.3-.4-.6-.6h-.6c-.1 0-.6 0-1 .3-.7.5-.8 1.4-.8 2.3v3.6h-2v-6l-.1-1.8h2v1.2l.3-.3c.3-.4.6-.6.7-.6.6-.3 1-.4 1.7-.4s1.2.2 1.5.4c.2 0 .4.2.7.6.4.7.5 1.5.5 3v4h-2zm6-4.6l.7-1 1.8-2.2h2.4l-3 3.5 3.3 4.3h-2.5l-1.7-2.3-1-1.5v3.8h-2V16.3h2v6.8zm7.6 1.4l.3.8c.6.9 1.5 1 2.1 1 .6 0 1.3 0 1.9-.4l.6-.3v1.7c-.6.3-1.4.6-2.7.6-.2 0-1 0-1.8-.3-1.2-.4-2.3-1.6-2.3-3.7 0-1 .2-1.6.4-2l.2-.5.3-.4c.6-.7 1.5-1.3 2.9-1.3 2.5 0 3.5 2 3.5 4v.8h-5.4zm3.5-1.4c0-.4 0-.9-.4-1.3-.4-.6-1-.6-1.2-.6-.1 0-1 0-1.5.7-.3.5-.3 1-.4 1.2h3.5zm9.1 4.6V24c0-1 0-1.5-.3-1.9-.1-.3-.3-.4-.5-.6h-.6c-.2 0-.6 0-1 .3-.8.5-.8 1.4-.9 2.3v3.6h-2v-6V20h1.9v1.2l.3-.3c.3-.4.6-.6.7-.6.6-.3 1.1-.4 1.7-.4.8 0 1.2.2 1.5.4.2 0 .5.2.7.6.5.7.5 1.5.5 3v4h-2zm12.6-4.2v5h17.1l-1-5h-16zm42.5 5v-5h-16.3l-1 5H300zm-33.9-16.8L265 6.6h10.4l3.4 14.7h.1L281 12c1.1-4.3 1.5-5.3 7.5-5.3h4.4l-2 8.2c-.4 1.7-4 1.5-3.9 0l.4-2.2c.2-1.2-1.2-1.3-1.5-.2l-1.7 9H300V0h-42.5v21.2H273l-2.1-9.6H266z" fill="#FFF" fill-rule="nonzero"></path></svg>