<svg xmlns="http://www.w3.org/2000/svg" xmlns:xlink="http://www.w3.org/1999/xlink"><defs><symbol viewBox="0 0 200 200" id="icon-arrow-circle"><path d="M159.06 51.39c-10.92-12.98-24.51-21.81-41.07-25.82-16.52-4-32.71-2.72-48.36 3.99-15.66 6.71-27.7 17.63-36.44 32.27-.38-.19-.66-.31-.92-.46-1.59-.91-3.17-1.83-5.04-2.91 15.33-24.5 36.91-39.06 65.79-41.4 28.81-2.33 52.52 8.43 71.66 30.39.25-1.78.47-3.25.67-4.72.51-3.85 1.05-7.69 1.5-11.54.11-.94.59-1.04 1.32-.95l4.15.54c.92.12 1.26.45 1.09 1.55-.91 5.95-1.67 11.92-2.5 17.88-.32 2.33-.72 4.65-1 6.99-.1.84-.5.97-1.2.98-4.24.07-8.48.17-12.72.25-4.11.08-8.22.13-12.33.26-1.07.03-1.52-.23-1.45-1.37.09-1.35.07-2.72 0-4.07-.05-1 .34-1.27 1.29-1.27 4.6.02 9.19 0 13.79-.03.55 0 1.09-.09 1.63-.14.04-.14.08-.29.12-.44M114.42 158.17c1.69 1.26 3.21 2.43 4.77 3.55.77.56.36 1-.02 1.51-2.72 3.65-5.43 7.3-8.14 10.96-.43.59-.84 1.19-1.26 1.79.05.13.09.26.14.38 1.5-.22 3.02-.38 4.52-.68 15.34-3.05 28.63-10.04 39.71-21.09 11.32-11.28 18.44-24.85 21.37-40.56 1.43-7.65 1.74-15.39.58-23.09-.71-4.73-1.92-9.38-3-14.04-.21-.9-.25-1.4.68-1.87 1.59-.8 3.11-1.76 4.98-2.83 8 25.17 6.13 49.19-7.69 71.66-13.82 22.46-34.34 35.24-60.66 39.36 1.06 1.06 1.9 1.92 2.76 2.76 2.79 2.72 5.57 5.45 8.4 8.13.76.72.9 1.26.06 2.01-1.3 1.16-2.52 2.41-3.77 3.61-6.4-6.43-12.81-12.88-19.33-19.44 5.2-7.23 10.5-14.61 15.91-22.14M85.78 182.74c-23.49-4.51-42.09-16.22-55.32-35.87-13.22-19.63-16.99-41.27-12.14-64.79-5.26 2.88-10.15 5.55-15.17 8.31-1.06-1.95-2.08-3.8-3.15-5.76.38-.25.69-.49 1.02-.67 7.32-3.92 14.66-7.83 21.97-11.77.82-.44 1.33-.51 1.96.32 5.19 6.88 10.42 13.74 15.63 20.6.05.07.06.16.15.42-1.74 1.27-3.52 2.57-5.39 3.95-3.4-4.61-6.74-9.13-10.28-13.91-.23.64-.39 1-.48 1.39-1.62 7.27-1.93 14.61-1.34 22.02 2.42 30.12 23.13 56.56 52.22 66.26 3.05 1.02 6.23 1.68 9.34 2.54.36.1.92.42.93.65.07 2.03.04 4.07.04 6.32"></path></symbol><symbol viewBox="0 0 200 200" id="icon-arrow-down"><path d="M124.631204,16.7602916 L125.478868,17.627695 L193.061276,94.1505355 C196.809113,98.3941718 196.999967,104.640193 193.671468,109.08549 L192.904364,110.009106 L125.321957,183.546536 C120.894639,188.363967 113.400289,188.680216 108.582859,184.252899 C104.066517,180.102288 103.506292,173.256044 107.101904,168.447037 L107.876496,167.513801 L157.2025,113.838893 L6.02850017,113.839601 L6.02850017,90.1458741 L157.9125,90.1448927 L107.719584,33.3120993 C103.659151,28.7145141 103.813607,21.8471239 107.889621,17.4379194 L108.757024,16.5902552 C113.354609,12.5298221 120.222,12.6842773 124.631204,16.7602916 Z" transform="rotate(90 101.03 100.5)"></path></symbol><symbol viewBox="0 0 200 200" id="icon-arrow-left"><path d="M123.602704,16.2602964 L124.450368,17.1276998 L192.032776,93.6505403 C195.780613,97.8941766 195.971467,104.140198 192.642968,108.585495 L191.875864,109.50911 L124.293456,183.046541 C119.866139,187.863972 112.371789,188.180221 107.554358,183.752903 C103.038017,179.602293 102.477792,172.756049 106.073404,167.947041 L106.847996,167.013805 L156.174,113.338897 L5,113.339606 L5,89.6458789 L156.884,89.6448975 L106.691084,32.812104 C102.630651,28.2145189 102.785106,21.3471286 106.861121,16.9379241 L107.728524,16.0902599 C112.326109,12.0298268 119.1935,12.1842821 123.602704,16.2602964 Z" transform="matrix(-1 0 0 1 200 0)"></path></symbol><symbol viewBox="0 0 200 200" id="icon-arrow-right"><path d="M124.631204,16.7602916 L125.478868,17.627695 L193.061276,94.1505355 C196.809113,98.3941718 196.999967,104.640193 193.671468,109.08549 L192.904364,110.009106 L125.321957,183.546536 C120.894639,188.363967 113.400289,188.680216 108.582859,184.252899 C104.066517,180.102288 103.506292,173.256044 107.101904,168.447037 L107.876496,167.513801 L157.2025,113.838893 L6.02850017,113.839601 L6.02850017,90.1458741 L157.9125,90.1448927 L107.719584,33.3120993 C103.659151,28.7145141 103.813607,21.8471239 107.889621,17.4379194 L108.757024,16.5902552 C113.354609,12.5298221 120.222,12.6842773 124.631204,16.7602916 Z"></path></symbol><symbol viewBox="0 0 200 200" id="icon-arrow-up"><path d="M124.631204,16.7602916 L125.478868,17.627695 L193.061276,94.1505355 C196.809113,98.3941718 196.999967,104.640193 193.671468,109.08549 L192.904364,110.009106 L125.321957,183.546536 C120.894639,188.363967 113.400289,188.680216 108.582859,184.252899 C104.066517,180.102288 103.506292,173.256044 107.101904,168.447037 L107.876496,167.513801 L157.2025,113.838893 L6.02850017,113.839601 L6.02850017,90.1458741 L157.9125,90.1448927 L107.719584,33.3120993 C103.659151,28.7145141 103.813607,21.8471239 107.889621,17.4379194 L108.757024,16.5902552 C113.354609,12.5298221 120.222,12.6842773 124.631204,16.7602916 Z" transform="rotate(-90 101.03 100.5)"></path></symbol><symbol viewBox="0 0 200 200" id="icon-atruvia"><path d="M152.311296,82.8028528 L126.275127,82.8028528 L126.275127,75.8311252 C126.275127,61.0984179 137.169675,50.4132588 152.202987,50.4132588 L186.675087,50.4132588 L186.675087,34.2335892 L152.202987,34.2335892 C127.986411,34.2335892 109.619885,52.1838145 109.619885,75.7153682 L109.619885,82.8094299 L90.382823,82.8094299 L90.382823,35.1451754 L14.9522585,35.1451754 L14.9522585,50.4040509 L73.7275811,50.4040509 L73.7275811,82.8028528 L47.6914115,82.8028528 C22.7979036,82.8028528 5,101.412104 5,124.284632 C5,147.855648 22.7979036,165.766411 47.6914115,165.766411 C72.0162963,165.766411 90.3814692,147.855648 90.3814692,124.330672 L90.3814692,98.9851532 L109.617177,98.9851532 L109.617177,124.329356 C109.617177,147.855648 127.983704,165.765095 152.308588,165.765095 C177.202096,165.765095 195,147.854333 195,124.283316 C195,101.410788 177.202096,82.8015373 152.308588,82.8015373 M73.7275811,124.284632 L73.7275811,124.284632 C73.7275811,138.885797 62.8330329,149.58411 47.6914115,149.58411 C31.9865825,149.58411 21.6552419,138.892374 21.6552419,124.284632 C21.6552419,110.341177 31.981167,98.9851532 47.6914115,98.9851532 L73.7275811,98.9851532 L73.7275811,124.284632 Z M152.311296,149.58411 C137.169675,149.58411 126.275127,138.892374 126.275127,124.284632 L126.275127,124.284632 L126.275127,98.9851532 L152.311296,98.9851532 C168.016125,98.9851532 178.347466,110.335915 178.347466,124.284632 C178.347466,138.885797 168.021541,149.58411 152.311296,149.58411"></path></symbol><symbol viewBox="0 0 200 200" id="icon-bolt-circle"><path d="M165.45 165.45q27.05-27.1 27.05-65.45 0-38.3-27.05-65.35-7.9-8-16.75-13.55l-3.15-2-3.95 6.25 3.15 2q8.15 5.1 15.4 12.5h.05q24.9 24.9 24.9 60.15 0 35.3-24.9 60.2-24.9 24.9-60.2 24.9-35.25 0-60.15-24.9Q14.9 135.3 14.9 100q0-35.25 24.95-60.15Q64.75 14.9 100 14.9q4.5 0 8.8.4L62 105.1h56.7l-21.9 49.35-9-13.2-6.1 4.2 12.75 18.7q.1.1.15.2l.7.65.65.4q.05.05.2.1.35.1.75.15l.75.05.75-.1q.3-.05.6-.15l22.15-9.65-2.95-6.8-13.5 5.85 25.35-57.15H74.2l46-88.3-5.15-.8Q107.8 7.5 100 7.5q-38.3 0-65.35 27.15Q7.5 61.7 7.5 100q0 38.35 27.15 65.45Q61.7 192.5 100 192.5q38.35 0 65.45-27.05Z"></path></symbol><symbol viewBox="0 0 24 25" fill="none" id="icon-calendar">
<path d="M5.25 20.25H18.75V6.75H5.25V20.25ZM21 21L20.9922 21.1533C20.9205 21.8593 20.3593 22.4205 19.6533 22.4922L19.5 22.5H4.5L4.34668 22.4922C3.64069 22.4205 3.07949 21.8593 3.00781 21.1533L3 21V6C3 5.22334 3.59028 4.58461 4.34668 4.50781L4.5 4.5H19.5L19.6533 4.50781C20.4097 4.58461 21 5.22334 21 6V21Z" fill="currentColor"></path>
<path d="M10.125 7.5L10.1191 7.61523C10.0614 8.18242 9.58242 8.625 9 8.625C8.41758 8.625 7.93857 8.18242 7.88086 7.61523L7.875 7.5V3C7.875 2.37868 8.37868 1.875 9 1.875C9.62132 1.875 10.125 2.37868 10.125 3V7.5Z" fill="currentColor"></path>
<path d="M4.5 13.125C3.87868 13.125 3.375 12.6213 3.375 12C3.375 11.3787 3.87868 10.875 4.5 10.875H19.5C20.1213 10.875 20.625 11.3787 20.625 12C20.625 12.6213 20.1213 13.125 19.5 13.125H4.5Z" fill="currentColor"></path>
<path d="M16.125 7.5L16.1191 7.61523C16.0614 8.18242 15.5824 8.625 15 8.625C14.4176 8.625 13.9386 8.18242 13.8809 7.61523L13.875 7.5V3C13.875 2.37868 14.3787 1.875 15 1.875C15.6213 1.875 16.125 2.37868 16.125 3V7.5Z" fill="currentColor"></path>
</symbol><symbol viewBox="0 0 200 200" id="icon-caret-down"><path fill-rule="evenodd" d="M193.023221,54.958869 C189.714921,51.6859658 184.344288,51.6796878 181.02793,54.9442205 L106.497248,128.317104 C103.190644,131.580381 97.8089846,131.580381 94.4947475,128.30957 L19.9721223,54.9442205 C16.6557648,51.6796878 11.2851315,51.6859658 7.97683164,54.958869 C4.66853175,58.2321908 4.67531713,63.5324526 7.99167467,66.7974038 L82.5058181,140.15522 C87.4680559,145.052438 93.9854194,147.5 100.501935,147.5 C107.015906,147.5 113.529876,145.053693 118.485329,140.162754 L193.007954,66.7974038 C196.324736,63.5320341 196.331521,58.2317723 193.023221,54.958869 Z"></path></symbol><symbol viewBox="0 0 200 200" id="icon-caret-left"><path fill-rule="evenodd" d="M193.023221,54.958869 C189.714921,51.6859658 184.344288,51.6796878 181.02793,54.9442205 L106.497248,128.317104 C103.190644,131.580381 97.8089846,131.580381 94.4947475,128.30957 L19.9721223,54.9442205 C16.6557648,51.6796878 11.2851315,51.6859658 7.97683164,54.958869 C4.66853175,58.2321908 4.67531713,63.5324526 7.99167467,66.7974038 L82.5058181,140.15522 C87.4680559,145.052438 93.9854194,147.5 100.501935,147.5 C107.015906,147.5 113.529876,145.053693 118.485329,140.162754 L193.007954,66.7974038 C196.324736,63.5320341 196.331521,58.2317723 193.023221,54.958869 Z" transform="matrix(0 -1 -1 0 200.5 200.5)"></path></symbol><symbol viewBox="0 0 200 200" id="icon-caret-right"><path fill-rule="evenodd" d="M193.023221,54.958869 C189.714921,51.6859658 184.344288,51.6796878 181.02793,54.9442205 L106.497248,128.317104 C103.190644,131.580381 97.8089846,131.580381 94.4947475,128.30957 L19.9721223,54.9442205 C16.6557648,51.6796878 11.2851315,51.6859658 7.97683164,54.958869 C4.66853175,58.2321908 4.67531713,63.5324526 7.99167467,66.7974038 L82.5058181,140.15522 C87.4680559,145.052438 93.9854194,147.5 100.501935,147.5 C107.015906,147.5 113.529876,145.053693 118.485329,140.162754 L193.007954,66.7974038 C196.324736,63.5320341 196.331521,58.2317723 193.023221,54.958869 Z" transform="rotate(-90 100.5 100)"></path></symbol><symbol viewBox="0 0 200 200" id="icon-caret-up"><path fill-rule="evenodd" d="M193.023221,54.958869 C189.714921,51.6859658 184.344288,51.6796878 181.02793,54.9442205 L106.497248,128.317104 C103.190644,131.580381 97.8089846,131.580381 94.4947475,128.30957 L19.9721223,54.9442205 C16.6557648,51.6796878 11.2851315,51.6859658 7.97683164,54.958869 C4.66853175,58.2321908 4.67531713,63.5324526 7.99167467,66.7974038 L82.5058181,140.15522 C87.4680559,145.052438 93.9854194,147.5 100.501935,147.5 C107.015906,147.5 113.529876,145.053693 118.485329,140.162754 L193.007954,66.7974038 C196.324736,63.5320341 196.331521,58.2317723 193.023221,54.958869 Z" transform="matrix(1 0 0 -1 0 200)"></path></symbol><symbol viewBox="0 0 24 25" fill="none" id="icon-category">
<path fill-rule="evenodd" clip-rule="evenodd" d="M9.55957 13.793C10.2081 13.8586 10.7139 14.4064 10.7139 15.0723V20.2148L10.708 20.3457C10.6466 20.951 10.1649 21.4329 9.55957 21.4941L9.42871 21.5H4.28613L4.1543 21.4941C3.54915 21.4327 3.06828 20.9508 3.00684 20.3457L3 20.2148V15.0723C3 14.4066 3.50598 13.8588 4.1543 13.793L4.28613 13.7861H9.42871L9.55957 13.793ZM4.92871 19.5723H8.78613V15.7148H4.92871V19.5723Z" fill="currentColor"></path>
<path fill-rule="evenodd" clip-rule="evenodd" d="M19.8457 13.793C20.494 13.8589 21 14.4066 21 15.0723V20.2148L20.9941 20.3457C20.9327 20.9509 20.4509 21.4327 19.8457 21.4941L19.7148 21.5H14.5723L14.4404 21.4941C13.8353 21.4327 13.3544 20.9508 13.293 20.3457L13.2861 20.2148V15.0723C13.2861 14.4066 13.7921 13.8588 14.4404 13.793L14.5723 13.7861H19.7148L19.8457 13.793ZM15.2148 19.5723H19.0723V15.7148H15.2148V19.5723Z" fill="currentColor"></path>
<path fill-rule="evenodd" clip-rule="evenodd" d="M9.55957 3.50684C10.2081 3.57248 10.7139 4.1203 10.7139 4.78613V9.92871L10.708 10.0596C10.6467 10.6651 10.1651 11.1467 9.55957 11.208L9.42871 11.2139H4.28613L4.1543 11.208C3.54901 11.1466 3.06811 10.6649 3.00684 10.0596L3 9.92871V4.78613C3.00001 4.12044 3.50597 3.57267 4.1543 3.50684L4.28613 3.5H9.42871L9.55957 3.50684ZM4.92871 9.28613H8.78613V5.42871H4.92871V9.28613Z" fill="currentColor"></path>
<path fill-rule="evenodd" clip-rule="evenodd" d="M19.8457 3.50684C20.494 3.5727 21 4.12046 21 4.78613V9.92871L20.9941 10.0596C20.9329 10.6649 20.451 11.1465 19.8457 11.208L19.7148 11.2139H14.5723L14.4404 11.208C13.8352 11.1466 13.3543 10.6649 13.293 10.0596L13.2861 9.92871V4.78613C13.2861 4.12044 13.7921 3.57267 14.4404 3.50684L14.5723 3.5H19.7148L19.8457 3.50684ZM15.2148 9.28613H19.0723V5.42871H15.2148V9.28613Z" fill="currentColor"></path>
</symbol><symbol viewBox="0 0 200 200" id="icon-check"><path d="M191.833333,49.3333334 L75.7222221,165.444445 C73.611111,167.555556 71.4999999,168.611111 68.3333332,168.611111 C65.1666666,168.611111 63.0555555,167.555556 60.9444443,165.444445 L8.16666655,112.666667 C3.94444432,108.444445 3.94444432,102.111111 8.16666655,97.888889 C12.3888888,93.6666668 18.7222221,93.6666668 22.9444443,97.888889 L68.3333332,143.277778 L177.055556,34.5555557 C181.277778,30.3333334 187.611111,30.3333334 191.833333,34.5555557 C196.055556,38.7777779 196.055556,45.1111112 191.833333,49.3333334 Z"></path></symbol><symbol viewBox="0 0 512 512" id="icon-cookies"><path fill="currentColor" d="M507.44 208.64a15.982 15.982 0 0 0-13.824-12.928 15.962 15.962 0 0 0-16.48 9.312c-5.072 11.2-16.208 18.992-29.12 18.976-14.32.032-26.416-9.632-30.448-22.896-2.432-8.096-10.752-12.896-18.976-10.976-5.056 1.184-9.84 1.872-14.592 1.872-35.248-.064-63.936-28.752-64-64 0-4.752.688-9.536 1.872-14.576 1.936-8.224-2.88-16.56-10.976-18.992C297.632 90.416 287.968 78.32 288 64c-.016-12.928 7.776-24.048 18.976-29.12a15.974 15.974 0 0 0 9.312-16.48A15.983 15.983 0 0 0 303.36 4.56C288.096 1.696 272.288 0 256 0 114.784.032.032 114.784 0 256c.032 141.216 114.784 255.968 256 256 141.216-.032 255.968-114.784 256-256 0-16.288-1.696-32.096-4.56-47.36zm-93.12 205.68C373.696 454.912 317.792 480 256 480s-117.696-25.088-158.32-65.68C57.088 373.696 32 317.792 32 256S57.088 138.304 97.68 97.68C138.304 57.088 194.208 32 256 32c2.88 0 5.696.304 8.56.432-5.344 9.312-8.544 20.032-8.56 31.568.032 23.888 13.28 44.368 32.592 55.296-.304 2.848-.592 5.696-.592 8.704.032 52.976 43.024 95.968 96 96 3.008 0 5.856-.288 8.704-.592C403.632 242.704 424.096 255.968 448 256c11.536-.016 22.256-3.216 31.568-8.56.128 2.848.432 5.68.432 8.56 0 61.792-25.088 117.696-65.68 158.32z"></path><circle fill="currentColor" cx="192" cy="128" r="32"></circle><circle fill="currentColor" cx="128" cy="256" r="32"></circle><circle fill="currentColor" cx="288" cy="384" r="32"></circle><circle fill="currentColor" cx="272" cy="272" r="16"></circle><circle fill="currentColor" cx="400" cy="336" r="16"></circle><circle cx="176" cy="368" r="16"></circle></symbol><symbol viewBox="0 0 200 200" id="icon-copyright"><path d="M100,193.705722 C112.942779,193.705722 125.152134,191.376022 136.628065,186.716621 C148.103996,182.057221 158.242507,175.542688 167.043597,167.173025 C175.844687,158.803361 182.70436,148.923706 187.622616,137.53406 C192.540872,126.144414 195,113.633061 195,100 C195,86.3669391 192.540872,73.8555858 187.622616,62.4659401 C182.70436,51.0762943 175.844687,41.1966394 167.043597,32.8269755 C158.242507,24.4573115 148.103996,17.9427793 136.628065,13.2833787 C125.152134,8.6239782 112.942779,6.29427793 100,6.29427793 C87.0572207,6.29427793 74.8478656,8.6239782 63.3719346,13.2833787 C51.8960036,17.9427793 41.7574932,24.4573115 32.9564033,32.8269755 C24.1553134,41.1966394 17.2956403,51.0762943 12.3773842,62.4659401 C7.45912807,73.8555858 5,86.3669391 5,100 C5,113.633061 7.45912807,126.144414 12.3773842,137.53406 C17.2956403,148.923706 24.1553134,158.803361 32.9564033,167.173025 C41.7574932,175.542688 51.8960036,182.057221 63.3719346,186.716621 C74.8478656,191.376022 87.0572207,193.705722 100,193.705722 Z M100,177.915531 C89.1280654,177.915531 78.9032698,175.974114 69.3256131,172.091281 C59.7479564,168.208447 51.3351499,162.77248 44.0871935,155.783379 C36.8392371,148.794278 31.1444142,140.554042 27.0027248,131.06267 C22.8610354,121.571299 20.7901907,111.217075 20.7901907,100 C20.7901907,88.7829246 22.8610354,78.4287012 27.0027248,68.9373297 C31.1444142,59.4459582 36.8392371,51.2057221 44.0871935,44.2166213 C51.3351499,37.2275204 59.7479564,31.7915531 69.3256131,27.9087193 C78.9032698,24.0258856 89.1280654,22.0844687 100,22.0844687 C110.871935,22.0844687 121.09673,24.0258856 130.674387,27.9087193 C140.252044,31.7915531 148.66485,37.2275204 155.912807,44.2166213 C163.160763,51.2057221 168.855586,59.4459582 172.997275,68.9373297 C177.138965,78.4287012 179.209809,88.7829246 179.209809,100 C179.209809,111.217075 177.138965,121.571299 172.997275,131.06267 C168.855586,140.554042 163.160763,148.794278 155.912807,155.783379 C148.66485,162.77248 140.252044,168.208447 130.674387,172.091281 C121.09673,175.974114 110.871935,177.915531 100,177.915531 Z M101.553134,154.618529 C110.354223,154.618529 118.292461,152.935967 125.367847,149.570845 C132.443233,146.205722 138.483197,141.589464 143.487738,135.722071 L143.487738,135.722071 L129.509537,122.26158 C121.743869,131.06267 112.425068,135.463215 101.553134,135.463215 C94.9954587,135.463215 88.9986376,133.910082 83.5626703,130.803815 C78.126703,127.697548 73.8124432,123.469573 70.619891,118.119891 C67.4273388,112.770209 65.8310627,106.730245 65.8310627,100 C65.8310627,93.0971844 67.4273388,86.9709355 70.619891,81.6212534 C73.8124432,76.2715713 78.0835604,72.0435967 83.4332425,68.9373297 C88.7829246,65.8310627 94.7366031,64.2779292 101.294278,64.2779292 C112.166213,64.2779292 121.485014,68.6784741 129.250681,77.479564 L129.250681,77.479564 L143.487738,64.0190736 C138.655767,58.4968211 132.658946,53.9668483 125.497275,50.4291553 C118.335604,46.8914623 110.267938,45.1226158 101.294278,45.1226158 C90.4223433,45.1226158 80.7584015,47.5817439 72.3024523,52.5 C63.8465032,57.4182561 57.1594005,63.975931 52.2411444,72.1730245 C47.3228883,80.3701181 44.8637602,89.5594914 44.8637602,99.7411444 C44.8637602,109.750227 47.3228883,118.9396 52.2411444,127.309264 C57.1594005,135.678928 63.8896458,142.322888 72.4318801,147.241144 C80.9741144,152.159401 90.6811989,154.618529 101.553134,154.618529 Z"></path></symbol><symbol viewBox="0 0 200 200" id="icon-cross"><path d="M176.914306,4.83883476 L194.838835,22.7633631 L117.762835,99.8388348 L194.838835,176.914306 L176.914306,194.838835 L99.8378348,117.762835 L22.7633631,194.838835 L4.83883476,176.914306 L81.9138348,99.8388348 L4.83883476,22.7633631 L22.7633631,4.83883476 L99.8388348,81.9148348 L176.914306,4.83883476 Z"></path></symbol><symbol viewBox="0 0 200 200" id="icon-database"><path d="M99.6 78.37c18.14 0 36.28.03 54.41-.04 2.44 0 4.21 1.63 4.19 4.23-.09 11.43-.04 22.86-.04 34.3 0 2.58-1.4 3.99-3.95 3.99H44.78c-2.55 0-3.95-1.41-3.95-3.99v-34.4c0-2.72 1.36-4.09 4.05-4.09h54.71Zm-.08 5.08h-52.2c-1.4 0-1.4 0-1.4 1.38v29.57c0 1.37 0 1.38 1.4 1.38h104.31q1.45 0 1.45-1.43V84.98q0-1.53-1.55-1.53h-52ZM99.52 19.62h54.61c2.66 0 4.03 1.36 4.03 3.99v34.5c0 2.53-1.45 4.01-3.97 4.01H44.76c-2.45 0-3.93-1.49-3.93-3.94v-34.7c0-2.44 1.42-3.85 3.87-3.85h54.81Zm-.02 5.08H47.3c-1.38 0-1.39 0-1.39 1.37v29.57c0 1.39 0 1.4 1.38 1.4h104.39c1.38 0 1.39 0 1.39-1.39V26.18q0-1.48-1.48-1.48h-52.1ZM99.49 179.62H44.88c-2.71 0-4.04-1.35-4.04-4.08v-34.4c0-2.58 1.45-4.02 4.06-4.02h109.22c2.6 0 4.04 1.44 4.04 4.03v34.5c0 2.58-1.38 3.97-3.95 3.97H99.5Zm0-5.08h52.2c1.38 0 1.39 0 1.39-1.37V143.6c0-1.39 0-1.4-1.38-1.4H47.31c-1.38 0-1.39 0-1.39 1.39v29.47q0 1.48 1.48 1.48h52.1Z"></path><path d="M64.8 102.16c-2.28 0-4.55-.03-6.83.02-.85.02-1.11-.28-1.07-1.1.06-1.03.04-2.08 0-3.11-.02-.62.15-.91.84-.91 4.69.02 9.37.02 14.06 0 .67 0 .88.24.86.89-.04 1.1-.05 2.21 0 3.31.03.72-.26.92-.94.91-2.31-.03-4.62-.01-6.93-.01ZM64.74 43.41c-2.28 0-4.55-.02-6.83.01-.71.01-1.05-.17-1.01-.95.05-1.1.03-2.21 0-3.31-.01-.59.18-.84.8-.84 4.72.02 9.44.02 14.15 0 .63 0 .81.26.8.84-.03 1.14-.04 2.28 0 3.41.02.69-.29.85-.91.84-2.34-.02-4.68 0-7.03 0ZM64.7 160.91c-2.28 0-4.55-.03-6.83.01-.75.01-1.01-.24-.97-.98.05-1.07.03-2.14 0-3.21-.02-.62.15-.91.84-.91 4.68.02 9.37.02 14.05 0 .66 0 .89.23.87.88-.04 1.1-.05 2.21 0 3.31.03.72-.26.92-.94.91-2.34-.03-4.68-.01-7.03-.01Z"></path></symbol><symbol viewBox="0 0 200 200" id="icon-download"><path d="M185.5,119 C190.37194,119 194.387318,122.667382 194.936087,127.392099 L195,128.5 L195,166.5 C195,181.677968 183.13526,194.084778 168.174591,194.951619 L166.5,195 L33.5,195 C18.3220316,195 5.91522165,183.13526 5.04838059,168.174591 L5,166.5 L5,128.5 C5,123.253295 9.25329488,119 14.5,119 C19.3719405,119 23.387318,122.667382 23.9360866,127.392099 L24,128.5 L24,166.5 C24,171.37194 27.6673818,175.387318 32.3920993,175.936087 L33.5,176 L166.5,176 C171.37194,176 175.387318,172.332618 175.936087,167.607901 L176,166.5 L176,128.5 C176,123.253295 180.253295,119 185.5,119 Z M105.771894,136.04616 L105.717044,136.08866 C105.403348,136.325607 105.078307,136.540524 104.744031,136.73341 C104.732961,136.738912 104.721934,136.74525 104.710894,136.751567 C104.649718,136.787414 104.588029,136.821763 104.526045,136.855372 C104.513253,136.86155 104.500872,136.868235 104.488474,136.874894 C104.359651,136.944743 104.229049,137.010915 104.097296,137.073877 L104.046871,137.097409 C104.029672,137.105519 104.012445,137.113579 103.995189,137.121588 C103.868112,137.180784 103.740498,137.236481 103.611961,137.289241 C103.522562,137.326043 103.432377,137.361537 103.34153,137.395678 L103.309706,137.407281 C103.293079,137.413448 103.276438,137.419566 103.259784,137.425636 C102.932825,137.545405 102.597516,137.647376 102.254936,137.730772 C102.236564,137.734396 102.218548,137.738722 102.200522,137.742996 C102.133268,137.759801 102.065266,137.775141 101.996991,137.789747 C101.971887,137.794265 101.947196,137.799445 101.922489,137.804526 C101.754145,137.839977 101.583799,137.870185 101.41195,137.895791 C101.404888,137.89616 101.39822,137.897149 101.391551,137.898131 C101.315779,137.909932 101.239366,137.920205 101.16267,137.929564 C101.144464,137.931242 101.126766,137.933361 101.109063,137.93543 C100.946699,137.954837 100.782664,137.969656 100.61748,137.980254 C100.593146,137.981611 100.56847,137.983114 100.543789,137.98452 C100.452566,137.989839 100.361683,137.993674 100.270479,137.996224 L100,138 L100,138 C99.6298179,138 99.2645811,137.978827 98.9054344,137.937626 C98.8654635,137.932505 98.8250672,137.927587 98.7846979,137.922409 C98.7336606,137.916474 98.6830534,137.909594 98.6325746,137.902317 C98.6021083,137.897245 98.5717726,137.892707 98.5414551,137.888022 C98.4699231,137.877706 98.3988404,137.865918 98.328029,137.853345 C98.3238764,137.851817 98.3188707,137.850923 98.3138656,137.850025 L98.328029,137.853345 C98.238938,137.837527 98.1502763,137.820467 98.0620624,137.802184 C98.0528447,137.799424 98.0431711,137.797403 98.0335001,137.795367 C97.7660629,137.739914 97.5031774,137.672485 97.2449383,137.594357 C97.2360854,137.591006 97.2267713,137.588178 97.2174607,137.585335 C97.0522031,137.535443 96.8892803,137.480657 96.7283975,137.421643 C96.7115494,137.415153 96.6948849,137.409 96.6782344,137.402799 C96.5948351,137.371955 96.5115872,137.339528 96.4289187,137.30597 C96.3987168,137.293663 96.3723311,137.282824 96.3459847,137.271861 C96.2906863,137.248785 96.2353131,137.225069 96.1802137,137.200845 C96.1295538,137.178793 96.0788312,137.156006 96.0282708,137.132752 C96.0064918,137.122402 95.9846615,137.112241 95.9628764,137.101998 L95.902704,137.073877 C95.8755571,137.060904 95.848459,137.047795 95.8214108,137.034549 C95.7803,137.013884 95.7393181,136.993409 95.6985062,136.972648 C95.647889,136.947541 95.5974206,136.921332 95.5471415,136.89464 C95.5246934,136.881991 95.5023366,136.86999 95.4800336,136.857904 C95.0698165,136.63662 94.6725609,136.382227 94.2919532,136.095448 C94.2696977,136.077893 94.2471115,136.060734 94.2246047,136.043477 C94.2085405,136.031899 94.1929835,136.01988 94.1774553,136.007806 L94.1610554,135.994323 C93.8574465,135.757439 93.5686051,135.502509 93.2961435,135.231145 L45.7824856,87.7175144 C42.0725048,84.0075336 42.0725048,77.9924664 45.7824856,74.2824856 C49.2070832,70.8578879 54.5957782,70.5944574 58.3225447,73.4921938 L59.2175144,74.2824856 L90.5,105.56 L90.5,14.5 C90.5,9.25329488 94.7532949,5 100,5 C104.87194,5 108.887318,8.66738181 109.436087,13.3920993 L109.5,14.5 L109.5,105.558 L140.782486,74.2824856 C144.207083,70.8578879 149.595778,70.5944574 153.322545,73.4921938 L154.217514,74.2824856 C157.642112,77.7070832 157.905543,83.0957782 155.007806,86.8225447 L154.217514,87.7175144 L106.717514,135.217514 C106.59456,135.340469 106.468252,135.460068 106.338737,135.576164 C106.29398,135.616551 106.248595,135.65651 106.202924,135.695962 C106.176913,135.718048 106.15092,135.740233 106.124805,135.76228 C106.081721,135.799131 106.038363,135.835124 105.994763,135.870673 C105.982308,135.880254 105.969624,135.89053 105.956912,135.900775 C105.912379,135.937305 105.867583,135.972787 105.822545,136.007806 L105.771894,136.04616 L105.771894,136.04616 Z"></path></symbol><symbol viewBox="0 0 24 25" fill="none" id="icon-dropdown-arrow">
<path fill-rule="evenodd" clip-rule="evenodd" d="M23.1629 7.09487C22.7659 6.70212 22.1215 6.70137 21.7235 7.09311L12.7798 15.8979C12.383 16.2895 11.7372 16.2895 11.3395 15.897L2.39681 7.09311C1.99885 6.70137 1.35437 6.70212 0.957376 7.09487C0.56038 7.48767 0.561194 8.1237 0.959157 8.51549L9.90086 17.3184C10.4963 17.9061 11.2784 18.1998 12.0604 18.1998C12.8421 18.1998 13.6237 17.9062 14.2184 17.3193L23.1611 8.51549C23.5591 8.12365 23.5599 7.48762 23.1629 7.09487Z" fill="currentColor"></path>
</symbol><symbol viewBox="0 0 200 200" id="icon-ecosystem"><path d="M85.48 116.54c-.61-.48-1.18-.86-1.68-1.33-1.07-1.02-1.67-2.26-1.67-3.76 0-6.93-.02-13.85.03-20.78 0-.79.29-1.64.64-2.36.32-.65.23-1.02-.25-1.5C71.57 75.85 60.6 64.87 49.6 53.92c-.4-.4-1.13-.67-1.7-.68-5.98-.05-11.97-.03-17.95-.03-3.24 0-5.63-2.36-5.64-5.6-.02-5.77-.02-11.53 0-17.3 0-3.29 2.41-5.68 5.71-5.68 15.37-.01 30.75-.01 46.12 0 3.29 0 5.67 2.41 5.68 5.71.02 5.73.02 11.46 0 17.19 0 3.33-2.37 5.68-5.67 5.69H57.64C67.67 63.25 77.79 73.36 87.9 83.48c-.04.11-.09.22-.13.32.03-.44.08-.87.08-1.31.01-5.6 3.58-10.11 9.03-11.39 6.21-1.46 12.71 2.9 13.66 9.23.23 1.53.22 3.09.32 4.64.06.04.11.1.18.12 4.15.97 5.44 2.57 5.44 6.8 0 1.34.01 2.68 0 4.02 0 .68.27.96.98.96 9.1-.01 18.2-.02 27.3 0 .91 0 .97-.49.97-1.18-.01-4.68.03-9.36-.03-14.03-.01-1.05.28-1.41 1.33-1.33 1.15.09 2.32 0 3.48.03.63.02.92-.17.9-.86-.01-.89-.25-2.24.21-2.58.65-.48 1.85-.26 2.81-.27 2.45-.02 2.48 0 2.5 2.51 0 .86.24 1.24 1.18 1.2 1.55-.07 3.1-.02 4.82-.02 0-.82.03-1.78-.01-2.75-.03-.69.18-.99.92-.96 1.23.05 2.47.04 3.7 0 .71-.02.97.24.95.95-.03 1.56-.04 3.12.01 4.68.01.43.12 1.01.41 1.27 3.59 3.27 4.32 9.66.29 13.88.24.2.46.42.7.6 5.47 4.25 5.3 12.57-.38 16.51-.79.55-1.1 1.11-1.06 2.04.06 1.7 0 3.41.03 5.11.01.7-.24.97-.95.95-1.23-.04-2.47-.04-3.7 0-.74.03-.94-.27-.92-.96.04-1.34-.01-2.68.02-4.02.02-.67-.24-.88-.9-.86-1.3.05-2.61.05-3.92 0-.91-.03-1.22.35-1.19 1.22.04 1.19-.02 2.39.02 3.59.02.72-.19 1.06-.98 1.03a50.72 50.72 0 0 0-3.7 0c-.66.02-.9-.22-.89-.88.04-1.3-.03-2.61.02-3.92.03-.75-.24-1.05-.99-1.03-1.2.03-2.4-.05-3.59.02-.96.05-1.14-.37-1.13-1.22.03-3.95-.02-7.9.04-11.86.01-1.04-.3-1.37-1.35-1.36-8.85.04-17.69.03-26.54 0-1.03 0-1.41.29-1.38 1.35.06 2.46.03 4.93.01 7.4-.02 3.37-2.3 5.66-5.67 5.67-5.95.02-11.89.01-17.84 0-.76 0-1.26.2-1.67.91-5.17 9.02-10.38 18.02-15.57 27.02-.19.34-.36.69-.63 1.22.58.04.99.1 1.4.1H87.8c3.18 0 5.56 2.37 5.56 5.56 0 5.84.01 11.68 0 17.51 0 3.03-2.4 5.5-5.42 5.51-15.56.02-31.11.02-46.67 0-2.98 0-5.42-2.53-5.42-5.54-.01-5.84-.01-11.68 0-17.51 0-3.08 2.45-5.52 5.51-5.52 8.67 0 17.33-.01 26 .01.83 0 1.31-.25 1.73-.98 5.27-9.17 10.56-18.33 15.85-27.49.19-.34.36-.69.54-1.03ZM53.07 47.7c7.32 0 14.64-.01 21.96.02.95 0 1.33-.2 1.31-1.25-.05-5.04-.05-10.07 0-15.11 0-.93-.22-1.25-1.21-1.25-14.71.03-29.42.03-44.13 0-.99 0-1.21.33-1.2 1.25.04 4.96.02 9.93.02 14.89q0 1.44 1.41 1.44h21.85Zm11.52 103.84c-7.32 0-14.64.02-21.96-.02-1.02 0-1.29.32-1.29 1.3.04 5 .04 10 0 15 0 .97.26 1.31 1.28 1.3 14.68-.03 29.36-.03 44.04 0 .98 0 1.22-.31 1.21-1.25-.04-4.97-.02-9.93-.02-14.9q0-1.44-1.4-1.45H64.6Zm46.25-40.37c.04-.24.07-.35.07-.46 0-6.37 0-12.75.02-19.12 0-.87-.47-.92-1.1-.91-2.64.05-5.28.15-7.92.14-4.34-.01-8.68-.07-13.03-.15-.94-.02-1.23.28-1.23 1.24.04 6.05.02 12.1.02 18.15 0 .35.04.7.06 1.12h23.1Zm46.66-10.43v.1c-1.56 0-3.12.02-4.67 0-.62 0-.94.17-.94.85.02 2.97-.01 5.94.04 8.91 0 .28.47.79.72.79 3.44-.01 6.88.05 10.3-.21 2.64-.2 4.34-2.32 4.46-4.93.11-2.46-1.5-4.69-4.08-5.14-1.91-.33-3.88-.26-5.83-.36Zm.23-5.19v.02c1.63 0 3.26.04 4.89-.02.46-.02 1-.22 1.34-.52 1.61-1.43 2.14-3.77 1.39-5.75-.75-1.99-2.71-3.38-4.98-3.42-2.5-.05-5 .01-7.51-.03-.79-.01-.99.32-.99 1.04.02 2.54.03 5.08 0 7.61 0 .79.25 1.11 1.07 1.09 1.59-.04 3.19-.01 4.79-.01ZM99.32 85.13h3.15q2.99 0 2.76-3c-.23-2.99-2.55-5.51-5.19-5.65-3.44-.19-5.88 1.59-6.5 4.85-.19 1.02-.12 2.08-.16 3.13-.03.62.37.69.85.68 1.7-.01 3.4 0 5.1 0Z"></path><path d="M35.85 93.88c0-3.2 2.51-5.73 5.7-5.72 3.09 0 5.66 2.59 5.66 5.68 0 3.07-2.6 5.67-5.69 5.68-3.11 0-5.67-2.53-5.67-5.64ZM122.6 157.35c.01-3.18 2.53-5.69 5.65-5.64 3.12.05 5.58 2.59 5.57 5.76-.01 3.17-2.5 5.61-5.69 5.6-3.17-.01-5.55-2.47-5.53-5.72ZM122.59 53.35c.01-3.18 2.49-5.67 5.64-5.65 3.13.01 5.6 2.54 5.6 5.71 0 3.15-2.52 5.67-5.66 5.65-3.13-.01-5.6-2.54-5.59-5.71ZM41.43 41.68c-1.52 0-3.05-.03-4.57.01-.72.02-1.07-.16-1.03-.97.06-1.23.04-2.46 0-3.7-.02-.68.25-.88.9-.87 3.19.02 6.38.02 9.57 0 .62 0 .94.15.92.85-.04 1.27-.04 2.54 0 3.81.02.68-.26.88-.9.87-1.63-.03-3.26 0-4.89 0ZM53.06 163.07c-1.56 0-3.12-.03-4.68.01-.73.02-1.06-.18-1.02-.97.06-1.19.04-2.39 0-3.59-.02-.68.17-.98.91-.97 3.19.03 6.38.02 9.57 0 .63 0 .93.17.91.86-.04 1.27-.04 2.54 0 3.81.02.69-.27.87-.91.86-1.59-.03-3.19 0-4.79 0Z"></path></symbol><symbol viewBox="0 0 200 200" id="icon-edit"><path d="M137.706 129.338l10.556-10.556c1.65-1.65 4.519-.495 4.519 1.88v47.963c0 8.741-7.092 15.834-15.834 15.834H20.834C12.092 184.459 5 177.366 5 168.625V52.511c0-8.741 7.092-15.833 15.834-15.833h90.219c2.342 0 3.53 2.837 1.88 4.519l-10.556 10.556a2.615 2.615 0 0 1-1.88.758H20.834v116.114h116.113v-37.44c0-.693.264-1.353.759-1.847zm51.657-66.568l-86.623 86.624-29.82 3.298c-8.643.957-15.999-6.333-15.042-15.042l3.299-29.82L147.8 21.207c7.554-7.554 19.76-7.554 27.28 0l14.25 14.25c7.554 7.554 7.554 19.792.033 27.313zm-32.59 10.193l-19.166-19.165-61.29 61.322-2.408 21.54 21.54-2.407 61.323-61.29zm21.375-26.29l-14.25-14.25c-1.353-1.353-3.563-1.353-4.883 0l-10.192 10.192 19.165 19.166 10.193-10.193c1.32-1.386 1.32-3.563-.033-4.915z"></path></symbol><symbol viewBox="0 0 200 200" id="icon-entry-point"><path d="M178.85 84.35q0-16.05-6.2-30.7-6-14.1-16.9-25.05-10.9-10.9-25.05-16.85-14.6-6.2-30.65-6.2-16.05 0-30.7 6.2Q55.2 17.7 44.3 28.6 33.4 39.55 27.4 53.65q-6.2 14.65-6.2 30.7 0 37.8 38.05 77.95 11.8 12.45 25.65 23.45l11.75 8.75q1.55 1 3.4 1 1.8 0 3.35-1l11.75-8.75q13.85-11 25.65-23.45 38.05-40.15 38.05-77.95m-78.8-66.7q27.6 0 47.15 19.55 19.55 19.5 19.55 47.15 0 16.8-9.2 34.8-8.75 17.1-25.55 34.8-11.25 11.9-24.4 22.3l-7.55 5.8.4.3q-2.2-1.55-3.8-2.85l-4.2-3.25q-13.15-10.4-24.4-22.3-16.8-17.7-25.55-34.8-9.2-18-9.2-34.8 0-27.65 19.55-47.15 19.55-19.55 47.2-19.55m3.55 28.45q-2.95 0-7.9 2.35l-21.1 10.2 4.15 10.55 18.85-8.9v50.5H77.8v11.75h48.15V110.8h-15.2V46.1h-7.15Z"></path></symbol><symbol viewBox="0 0 200 200" id="icon-error"><path d="M100,5 C47.3181818,5 5,47.3181818 5,100 C5,152.681818 47.3181818,195 100,195 C152.681818,195 195,152.681818 195,100 C195,47.3181818 152.681818,5 100,5 Z M100,177.727273 C56.8181818,177.727273 22.2727273,143.181818 22.2727273,100 C22.2727273,56.8181818 56.8181818,22.2727273 100,22.2727273 C143.181818,22.2727273 177.727273,56.8181818 177.727273,100 C177.727273,143.181818 143.181818,177.727273 100,177.727273 Z M131.954545,80.1363636 L112.090909,100 L131.954545,119.863636 C135.409091,123.318182 135.409091,128.5 131.954545,131.954545 C130.227273,133.681818 128.5,134.545455 125.909091,134.545455 C123.318182,134.545455 121.590909,133.681818 119.863636,131.954545 L100,112.090909 L80.1363636,131.954545 C78.4090909,133.681818 76.6818182,134.545455 74.0909091,134.545455 C71.5,134.545455 69.7727273,133.681818 68.0454545,131.954545 C64.5909091,128.5 64.5909091,123.318182 68.0454545,119.863636 L87.9090909,100 L68.0454545,80.1363636 C64.5909091,76.6818182 64.5909091,71.5 68.0454545,68.0454545 C71.5,64.5909091 76.6818182,64.5909091 80.1363636,68.0454545 L100,87.9090909 L119.863636,68.0454545 C123.318182,64.5909091 128.5,64.5909091 131.954545,68.0454545 C135.409091,71.5 135.409091,76.6818182 131.954545,80.1363636 Z"></path></symbol><symbol viewBox="0 0 200 200" id="icon-external-link"><path d="M90.5,33.5 C95.7467051,33.5 100,37.7532949 100,43 C100,47.8719405 96.3326182,51.887318 91.6079007,52.4360866 L90.5,52.5 L33.5,52.5 C28.6280595,52.5 24.612682,56.1673818 24.0639134,60.8920993 L24,62 L24,166.5 C24,171.37194 27.6673818,175.387318 32.3920993,175.936087 L33.5,176 L138,176 C142.87194,176 146.887318,172.332618 147.436087,167.607901 L147.5,166.5 L147.5,109.5 C147.5,104.253295 151.753295,100 157,100 C161.87194,100 165.887318,103.667382 166.436087,108.392099 L166.5,109.5 L166.5,166.5 C166.5,181.677968 154.63526,194.084778 139.674591,194.951619 L138,195 L33.5,195 C18.3220316,195 5.91522165,183.13526 5.04838059,168.174591 L5,166.5 L5,62 C5,46.8220316 16.8647397,34.4152216 31.8254085,33.5483806 L33.5,33.5 L90.5,33.5 Z M186.829214,5.09225373 L186.952749,5.11108414 C186.98108,5.11544434 187.009394,5.11993289 187.037692,5.12454981 C187.11315,5.13608969 187.188233,5.14924593 187.263008,5.16327824 C187.27057,5.16551438 187.278558,5.16702562 187.286544,5.16854716 L187.263008,5.16327824 C187.901623,5.28312086 188.517706,5.46686405 189.104366,5.70761528 C189.128737,5.71762478 189.152723,5.72756259 189.176676,5.7376029 C189.24286,5.76544543 189.308572,5.79393748 189.373894,5.8231455 C189.406467,5.83745649 189.439227,5.8522984 189.47192,5.86733584 C189.502951,5.88194959 189.534178,5.89654784 189.565311,5.91131038 C189.618225,5.93596054 189.670208,5.96115452 189.722006,5.98685029 C189.747509,6.00005634 189.773528,6.01313371 189.799478,6.02632679 C189.858088,6.0554815 189.916039,6.08566135 189.97374,6.11647919 C189.988895,6.12531481 190.00394,6.13341339 190.01896,6.14155129 C190.152302,6.21294192 190.284359,6.2885638 190.414924,6.36761246 C190.429743,6.37754439 190.445138,6.38692821 190.460505,6.39635452 C190.861482,6.64130243 191.247622,6.91926678 191.61574,7.22963362 C191.658331,7.26594185 191.700711,7.30226927 191.742765,7.3389611 C191.763822,7.35704106 191.78445,7.37521864 191.805018,7.39350096 C191.842998,7.42747207 191.881158,7.46190439 191.919035,7.49663997 C192.020038,7.58920031 192.119579,7.68455031 192.217514,7.78248558 L192.248144,7.81325452 C192.301242,7.86683701 192.353706,7.92104852 192.405525,7.97587689 L192.217514,7.78248558 C192.385145,7.9501166 192.545202,8.12245363 192.697685,8.2990714 C192.711729,8.31577148 192.725984,8.33241812 192.740182,8.3491145 C192.840377,8.46631771 192.936889,8.58541025 193.030093,8.70623186 C193.049105,8.73186119 193.068834,8.75773373 193.088433,8.78371011 C193.318998,9.08798471 193.52789,9.40266693 193.716091,9.72608166 C193.727512,9.74724847 193.73961,9.76820626 193.751629,9.78921435 C193.925246,10.0913875 194.080193,10.4013517 194.217166,10.7172396 C194.280297,10.8628332 194.340044,11.0103705 194.396138,11.1596948 C194.406408,11.1877968 194.417003,11.2164848 194.427456,11.2452131 C194.676676,11.9277337 194.849517,12.6467601 194.936087,13.3920993 L194.937623,13.4098701 C194.968525,13.678944 194.987946,13.9490861 194.995884,14.2195026 L195,14.5 L195,71.5 C195,76.7467051 190.746705,81 185.5,81 C180.62806,81 176.612682,77.3326182 176.063913,72.6079007 L176,71.5 L176,37.434 L87.7175144,125.717514 C84.0075336,129.427495 77.9924664,129.427495 74.2824856,125.717514 C70.8578879,122.292917 70.5944574,116.904222 73.4921938,113.177455 L74.2824856,112.282486 L162.564,24 L128.5,24 C123.62806,24 119.612682,20.3326182 119.063913,15.6079007 L119,14.5 C119,9.62805953 122.667382,5.61268197 127.392099,5.06391345 L128.5,5 L185.637615,5 C185.66597,5.00139879 185.694324,5.0019332 185.722676,5.0025938 L185.5,5 C185.613786,5 185.727105,5.00200047 185.839924,5.00596816 C185.881082,5.0075093 185.922422,5.00924827 185.963752,5.01125577 C186.020684,5.01385848 186.077349,5.0170881 186.13388,5.0208122 C186.166637,5.02321722 186.199597,5.025579 186.232547,5.02811195 C186.289964,5.03220419 186.346962,5.03706873 186.403814,5.04243429 C186.434512,5.04574386 186.465832,5.04887359 186.497138,5.05215847 C186.571275,5.05944253 186.644569,5.06795737 186.717604,5.07730153 C186.726734,5.07905982 186.735746,5.08023113 186.744757,5.08141535 L186.717604,5.07730153 C186.754875,5.08207005 186.792079,5.08705455 186.829214,5.09225373 Z"></path></symbol><symbol viewBox="0 0 200 200" id="icon-facebook"><path d="M195,100.573958 C195,48.1102083 152.46375,5.57395833 100,5.57395833 C47.53625,5.57395833 5,48.1102083 5,100.573958 C5,147.994792 39.7383333,187.293125 85.15625,194.418125 L85.15625,128.036875 L61.0341667,128.036875 L61.0341667,100.566042 L85.15625,100.566042 L85.15625,79.6502083 C85.15625,55.8447917 99.3429167,42.6872917 121.0425,42.6872917 C131.429167,42.6872917 142.306667,44.5477083 142.306667,44.5477083 L142.306667,67.925625 L130.320833,67.925625 C118.517083,67.925625 114.835833,75.2485417 114.835833,82.7614583 L114.835833,100.573958 L141.1825,100.573958 L136.970833,128.044792 L114.835833,128.044792 L114.835833,194.426042 C160.261667,187.293125 195,147.986875 195,100.573958 Z"></path></symbol><symbol viewBox="0 0 16 16" fill="none" id="icon-filter">
<path d="M14.643 2.99437C14.545 2.7729 14.3849 2.58465 14.1819 2.45251C13.979 2.32036 13.742 2.25001 13.4999 2.25H2.49988C2.25775 2.25002 2.02084 2.32037 1.81794 2.45249C1.61503 2.5846 1.45486 2.77281 1.35689 2.99423C1.25892 3.21565 1.22737 3.46076 1.26607 3.69978C1.30477 3.93879 1.41205 4.16143 1.57488 4.34062L1.58238 4.34937L5.74988 8.79687V13.5C5.74985 13.7263 5.81125 13.9484 5.92754 14.1425C6.04382 14.3367 6.21064 14.4956 6.41017 14.6023C6.60971 14.7091 6.83449 14.7597 7.06053 14.7487C7.28656 14.7377 7.50538 14.6656 7.69363 14.54L9.69363 13.2069C9.86486 13.0926 10.0052 12.9379 10.1023 12.7563C10.1993 12.5748 10.25 12.3721 10.2499 12.1662V8.79687L14.4168 4.34937L14.4243 4.34062C14.5872 4.16152 14.6946 3.93895 14.7334 3.69996C14.7723 3.46097 14.7408 3.21585 14.643 2.99437ZM8.9555 7.9875C8.82428 8.12596 8.75075 8.30923 8.74988 8.5V12.0325L7.24988 13.0325V8.5C7.24969 8.30957 7.17707 8.12635 7.04675 7.9875L3.07675 3.75H12.923L8.9555 7.9875Z" fill="currentColor"></path>
</symbol><symbol viewBox="0 0 200 200" id="icon-hand-leaf"><path d="M79.97 119.28c1.29-1.28 2.54-2.51 3.87-3.83.77.74 1.65 1.57 2.51 2.42 4.37 4.32 8.73 8.65 13.1 12.97 1.82 1.81 4.31 1.97 5.88.33 1.27-1.32 1.9-4.28-.09-6.19-5.97-5.75-11.92-11.51-17.88-17.26-.58-.56-1.14-1.14-1.75-1.67-1.07-.92-2.3-1.41-3.75-1.4-12.75.02-25.5.02-38.24-.01-1 0-1.31.25-1.3 1.28.05 4.92.06 9.83 0 14.75-.01 1.06.33 1.29 1.32 1.26 2.85-.11 5.76-.18 8.29 1.34 1.98 1.19 3.79 2.65 5.64 4.05 11.99 9.11 23.98 18.22 35.95 27.36 1.35 1.03 2.82 1.51 4.49 1.51h51.83c3.94 0 6.52-2.52 6.45-6.19-.06-2.93-2.63-5.49-5.57-5.49-10.96-.01-21.91 0-32.87 0q-1.37 0-1.38-1.37c0-1.05.05-2.11-.01-3.16-.05-.8.26-1.02 1.03-1.01 3.9.03 7.8.01 11.69.01h21.18c6.49 0 11.54 5.12 11.46 11.6-.07 5.9-5.09 10.99-10.97 11-17.91.03-35.82.01-53.73 0-2.55 0-4.79-.92-6.8-2.45-13.3-10.12-26.59-20.24-39.89-30.36-1.19-.9-2.5-1.36-4-1.35-2.81.02-5.62-.03-8.43.03-.91.02-1.2-.22-1.2-1.17.04-8.64.04-17.28 0-25.92 0-.96.24-1.25 1.23-1.25 9.02.04 18.05.02 27.08.02h16.65c3.1 0 5.75 1.09 7.97 3.23 6.32 6.09 12.57 12.25 18.98 18.25 4.02 3.77 3.98 9.32 1.7 12.97-3.06 4.93-10.29 5.63-14.55 1.43-4.9-4.83-9.78-9.69-14.67-14.53-.42-.42-.84-.83-1.22-1.21Z"></path><path d="M139.07 103.1v1.34c0 7.27-.02 14.53.02 21.8 0 .91-.21 1.27-1.17 1.2-1.08-.08-2.18-.07-3.26 0-.88.06-1.13-.25-1.13-1.13.03-7.3.02-14.6.02-21.91v-1.17c-2.04-.54-4.02-.88-5.86-1.58-8.81-3.38-14.15-9.85-16.25-18.96-1.79-7.76-.25-15.12 3.4-22.06 4.95-9.39 12.18-16.74 20.82-22.79.27-.19.9-.2 1.16-.02 9.44 6.84 17.31 15.03 22.17 25.8 2.21 4.91 3.25 10.08 2.82 15.45-1.01 12.59-10.03 21.95-21.38 23.73-.41.06-.82.17-1.36.29Zm-5.64-5.45V46.6c-.28.19-.44.28-.56.39-4.53 4.04-8.6 8.48-11.74 13.69-3.62 6-5.81 12.37-4.58 19.49 1.3 7.51 5.31 13.02 12.38 16.09 1.39.6 2.91.9 4.51 1.38Zm5.72-.18c.47-.05.81-.07 1.15-.14 10.2-2.1 16.28-10.82 16.13-20.97-.06-3.97-1.14-7.74-2.82-11.33-3.02-6.46-7.51-11.81-12.62-16.69-.54-.52-1.11-1.01-1.85-1.67v50.79Z"></path></symbol><symbol viewBox="0 0 200 200" id="icon-idea"><path d="M89.93 134.61c-3.42-13.25-6.83-26.48-10.27-39.82h39.71c-.3 1.21-.58 2.36-.88 3.51-1.87 7.3-3.75 14.59-5.6 21.89-.18.72-.43.89-1.13.67-1.22-.38-2.46-.66-3.81-1.01 1.73-6.74 3.44-13.45 5.18-20.24H85.91c3.44 13.35 6.86 26.62 10.31 40h-.92c-6.6 0-13.19-.01-19.79.01-.71 0-.97-.15-.96-.92.03-2.78.04-5.56-.05-8.33-.05-1.72-.16-3.47-.46-5.16-.31-1.73-1.35-3.18-2.45-4.53-3.1-3.82-5.96-7.8-8.12-12.25-2.04-4.21-3.48-8.6-3.82-13.29-1.06-14.6 4.4-26.3 15.94-35.15 5.37-4.12 11.51-6.56 18.23-7.44 12.53-1.63 23.56 1.75 32.94 10.2 6.66 6.01 10.73 13.55 12.24 22.39 1.64 9.58-.31 18.53-5.38 26.74-2.1 3.39-4.63 6.52-6.98 9.75-1.28 1.77-2.08 3.66-2.06 5.92.03 3.73-.1 7.47-.12 11.21 0 .66-.19.86-.86.86-6.04-.02-12.07-.02-18.11 0-.68 0-.88-.22-.86-.87.04-1.01.05-2.03 0-3.04-.03-.71.17-.97.93-.96 4.35.04 8.71 0 13.06.03.77 0 .98-.23.98-.99 0-2.56.02-5.12.16-7.68.14-2.66 1.23-5.01 2.79-7.13 1.85-2.51 3.83-4.94 5.6-7.5 2.78-4.03 4.89-8.4 5.83-13.23 1.89-9.69-.06-18.62-5.81-26.62-5.62-7.81-13.3-12.55-22.78-14.16C87.38 54.4 70 65.51 65.42 83c-.61 2.32-.9 4.76-1.06 7.17-.55 8.53 2.55 15.92 7.38 22.72 1.3 1.83 2.71 3.57 4.08 5.35 2.29 2.97 3.49 6.3 3.44 10.09-.03 1.92.09 3.84.14 5.76 0 .37.02.69.53.69 3.23-.02 6.46-.02 9.69-.03.05 0 .09-.04.28-.13ZM99.52 159.65c-4.64 0-9.28-.02-13.93.02-.8 0-1.01-.25-.97-1 .06-.98.05-1.98 0-2.96-.03-.69.18-.92.9-.91 3.25.04 6.51.02 9.76.02h18.09q1.03 0 1.04 1.07c0 .96-.04 1.92.01 2.88.04.69-.18.92-.9.91-4.67-.03-9.34-.02-14.01-.02ZM99.49 149.57c-4.64 0-9.28-.02-13.92.02-.75 0-.98-.23-.94-.95.05-.98.05-1.97 0-2.96-.03-.68.24-.86.88-.86 4.27.02 8.54.01 12.8.01h15.05c1.05 0 1.05 0 1.05 1.07 0 .91-.05 1.82.02 2.72.06.8-.26.98-1.01.97-4.64-.03-9.28-.02-13.92-.02ZM99.51 169.6c-4.62 0-9.23-.02-13.84.02-.78 0-1.11-.17-1.05-1.01.07-.93.05-1.87 0-2.8-.04-.72.19-.98.94-.97 2.43.04 4.85.02 7.28.02h20.49c1.07 0 1.07 0 1.07 1.05 0 .93-.04 1.87.01 2.8.04.69-.19.92-.9.91-4.67-.03-9.34-.02-14.01-.02ZM102.02 37.14c0 2.16-.02 4.32.01 6.48 0 .6-.12.87-.79.84-1.12-.05-2.24-.03-3.36 0-.49.01-.72-.11-.72-.66.02-4.51.01-9.02 0-13.53 0-.43.13-.65.59-.64 1.23.01 2.45.02 3.68 0 .53 0 .6.28.59.71-.01 2.27 0 4.54 0 6.8ZM41.92 94.48c-2.19 0-4.38-.01-6.57 0-.6 0-.87-.14-.84-.81.05-1.09.03-2.19 0-3.28 0-.47.14-.67.64-.67 4.51.01 9.03.01 13.54 0 .51 0 .64.21.63.67-.02 1.12-.03 2.24 0 3.36.02.59-.24.72-.76.72-2.22-.02-4.43 0-6.65 0ZM157.2 89.74c2.16 0 4.33.02 6.49-.01.6 0 .87.13.84.8-.05 1.07-.04 2.14 0 3.2.02.54-.15.76-.72.76-4.46-.02-8.92-.01-13.38 0-.5 0-.73-.15-.71-.69.03-1.12.04-2.24 0-3.36-.02-.59.24-.71.77-.71 2.24.02 4.49 0 6.73 0ZM51.24 48.13c3.21 3.21 6.44 6.45 9.67 9.69-1.05 1.04-2.16 2.13-3.2 3.15-3.21-3.21-6.46-6.46-9.65-9.66 1.01-1.01 2.11-2.12 3.18-3.18ZM138.2 57.69c3.14-3.14 6.38-6.37 9.55-9.53 1.04 1.04 2.14 2.15 3.15 3.16-3.12 3.12-6.38 6.37-9.55 9.54-.95-.96-2.05-2.06-3.15-3.16Z"></path></symbol><symbol viewBox="0 0 200 200" id="icon-info"><path d="M100,5 C47.3181818,5 5,47.3181818 5,100 C5,152.681818 47.3181818,195 100,195 C152.681818,195 195,152.681818 195,100 C195,47.3181818 152.681818,5 100,5 Z M100,177.727273 C56.8181818,177.727273 22.2727273,143.181818 22.2727273,100 C22.2727273,56.8181818 56.8181818,22.2727273 100,22.2727273 C143.181818,22.2727273 177.727273,56.8181818 177.727273,100 C177.727273,143.181818 143.181818,177.727273 100,177.727273 Z M108.636364,100 L108.636364,134.545455 C108.636364,139.727273 105.181818,143.181818 100,143.181818 C94.8181818,143.181818 91.3636364,139.727273 91.3636364,134.545455 L91.3636364,100 C91.3636364,94.8181818 94.8181818,91.3636364 100,91.3636364 C105.181818,91.3636364 108.636364,94.8181818 108.636364,100 Z M106.045455,59.4090909 C107.772727,61.1363636 108.636364,62.8636364 108.636364,65.4545455 C108.636364,68.0454545 107.772727,69.7727273 106.045455,71.5 C104.318182,73.2272727 102.590909,74.0909091 100,74.0909091 C99.1363636,74.0909091 99.1363636,74.0909091 98.2727273,74.0909091 C97.4090909,74.0909091 97.4090909,74.0909091 96.5454545,73.2272727 C95.6818182,73.2272727 95.6818182,72.3636364 94.8181818,72.3636364 C93.9545455,72.3636364 93.9545455,71.5 93.9545455,71.5 C92.2272727,69.7727273 91.3636364,68.0454545 91.3636364,65.4545455 C91.3636364,62.8636364 92.2272727,61.1363636 93.9545455,59.4090909 C93.9545455,59.4090909 94.8181818,58.5454545 94.8181818,58.5454545 C95.6818182,58.5454545 95.6818182,57.6818182 96.5454545,57.6818182 C97.4090909,57.6818182 97.4090909,57.6818182 98.2727273,56.8181818 C100.863636,56.8181818 104.318182,57.6818182 106.045455,59.4090909 Z"></path></symbol><symbol viewBox="0 0 200 200" id="icon-instagram"><path d="M100,5 C74.1916667,5 70.9695833,5.11875 60.83625,5.57 C50.71875,6.045 43.83125,7.63625 37.775,9.9875 C31.52875,12.41 26.2245833,15.66375 20.9441667,20.9441667 C15.66375,26.2245833 12.4020833,31.5208333 9.9875,37.775 C7.63625,43.83125 6.03708333,50.71875 5.57,60.83625 C5.095,70.9695833 5,74.1916667 5,100 C5,125.808333 5.11875,129.030417 5.57,139.16375 C6.045,149.273333 7.63625,156.16875 9.9875,162.225 C12.41,168.463333 15.66375,173.775417 20.9441667,179.055833 C26.2245833,184.328333 31.5208333,187.597917 37.775,190.0125 C43.8391667,192.355833 50.7266667,193.962917 60.83625,194.43 C70.9695833,194.905 74.1916667,195 100,195 C125.808333,195 129.030417,194.88125 139.16375,194.43 C149.273333,193.955 156.16875,192.355833 162.225,190.0125 C168.463333,187.59 173.775417,184.328333 179.055833,179.055833 C184.328333,173.775417 187.597917,168.487083 190.0125,162.225 C192.355833,156.16875 193.962917,149.273333 194.43,139.16375 C194.905,129.030417 195,125.808333 195,100 C195,74.1916667 194.88125,70.9695833 194.43,60.83625 C193.955,50.7266667 192.355833,43.8233333 190.0125,37.775 C187.59,31.52875 184.328333,26.2245833 179.055833,20.9441667 C173.775417,15.66375 168.487083,12.4020833 162.225,9.9875 C156.16875,7.63625 149.273333,6.03708333 139.16375,5.57 C129.030417,5.095 125.808333,5 100,5 Z M100,22.1 C125.357083,22.1 128.38125,22.2266667 138.395833,22.6620833 C147.658333,23.0975 152.685417,24.6333333 156.02625,25.9475 C160.475417,27.6654167 163.62625,29.72375 166.967083,33.0408333 C170.284167,36.3658333 172.3425,39.5245833 174.060417,43.97375 C175.35875,47.3145833 176.910417,52.3416667 177.33,61.6041667 C177.78125,71.6266667 177.884167,74.635 177.884167,100 C177.884167,125.365 177.765417,128.38125 177.298333,138.395833 C176.815417,147.658333 175.271667,152.685417 173.965417,156.02625 C172.192083,160.475417 170.173333,163.62625 166.848333,166.967083 C163.53125,170.284167 160.325,172.3425 155.923333,174.060417 C152.598333,175.35875 147.492083,176.910417 138.229583,177.33 C128.14375,177.78125 125.175,177.884167 99.7625,177.884167 C74.3420833,177.884167 71.3733333,177.765417 61.2954167,177.298333 C52.025,176.815417 46.91875,175.271667 43.59375,173.965417 C39.0891667,172.192083 35.99375,170.173333 32.6766667,166.848333 C29.34375,163.53125 27.2141667,160.325 25.5516667,155.923333 C24.2454167,152.598333 22.7095833,147.492083 22.2266667,138.229583 C21.8704167,128.254583 21.74375,125.175 21.74375,99.88125 C21.74375,74.5795833 21.8704167,71.4920833 22.2266667,61.3983333 C22.7095833,52.1358333 24.2454167,47.0375 25.5516667,43.7125 C27.2141667,39.2 29.34375,36.1125 32.6766667,32.7795833 C35.99375,29.4625 39.0891667,27.325 43.59375,25.6704167 C46.91875,24.35625 51.9141667,22.8125 61.1766667,22.3375 C71.2704167,21.98125 74.2391667,21.8625 99.64375,21.8625 L100,22.1 L100,22.1 Z M100,51.2175 C73.04375,51.2175 51.2175,73.0675 51.2175,100 C51.2175,126.95625 73.0675,148.7825 100,148.7825 C126.95625,148.7825 148.7825,126.9325 148.7825,100 C148.7825,73.04375 126.9325,51.2175 100,51.2175 Z M100,131.666667 C82.5041667,131.666667 68.3333333,117.495833 68.3333333,100 C68.3333333,82.5041667 82.5041667,68.3333333 100,68.3333333 C117.495833,68.3333333 131.666667,82.5041667 131.666667,100 C131.666667,117.495833 117.495833,131.666667 100,131.666667 Z M162.114167,49.29375 C162.114167,55.5875 157,60.69375 150.714167,60.69375 C144.420417,60.69375 139.314167,55.5795833 139.314167,49.29375 C139.314167,43.0079167 144.428333,37.9016575 150.714167,37.9016575 C156.992083,37.89375 162.114167,43.0079167 162.114167,49.29375 Z"></path></symbol><symbol viewBox="0 0 200 200" id="icon-linkedin"><path d="M166.872083,166.911667 L138.73625,166.911667 L138.73625,122.82375 C138.73625,112.310417 138.5225,98.7808333 124.074583,98.7808333 C109.405,98.7808333 107.164583,110.220417 107.164583,122.047917 L107.164583,166.911667 L79.02875,166.911667 L79.02875,76.25 L106.05625,76.25 L106.05625,88.6079167 L106.420417,88.6079167 C110.196667,81.4829167 119.38,73.9620833 133.099583,73.9620833 C161.6075,73.9620833 166.88,92.7245833 166.88,117.1475 L166.88,166.911667 L166.872083,166.911667 Z M47.25125,63.8445833 C38.1945833,63.8445833 30.9191667,56.51375 30.9191667,47.4966667 C30.9191667,38.4875 38.2025,31.1645833 47.25125,31.1645833 C56.27625,31.1645833 63.59125,38.4875 63.59125,47.4966667 C63.59125,56.51375 56.2683333,63.8445833 47.25125,63.8445833 Z M61.35875,166.911667 L33.14375,166.911667 L33.14375,76.25 L61.35875,76.25 L61.35875,166.911667 Z M180.947917,5 L19.0204167,5 C11.27,5 5,11.1275 5,18.6879167 L5,181.312083 C5,188.880417 11.27,195 19.0204167,195 L180.924167,195 C188.666667,195 195,188.880417 195,181.312083 L195,18.6879167 C195,11.1275 188.666667,5 180.924167,5 L180.947917,5 Z"></path></symbol><symbol viewBox="0 0 200 200" id="icon-loader"><path fill-rule="nonzero" d="M100,5 C104.429037,5 108.07938,8.33398346 108.578261,12.6291812 L108.636364,13.6363636 L108.636364,48.1818182 C108.636364,52.9515501 104.769732,56.8181818 100,56.8181818 C95.5709632,56.8181818 91.92062,53.4841984 91.4217395,49.1890006 L91.3636364,48.1818182 L91.3636364,13.6363636 C91.3636364,8.86663171 95.2302681,5 100,5 Z"></path><path fill-rule="nonzero" d="M100,143.181818 C104.429037,143.181818 108.07938,146.515802 108.578261,150.810999 L108.636364,151.818182 L108.636364,186.363636 C108.636364,191.133368 104.769732,195 100,195 C95.5709632,195 91.92062,191.666017 91.4217395,187.370819 L91.3636364,186.363636 L91.3636364,151.818182 C91.3636364,147.04845 95.2302681,143.181818 100,143.181818 Z" opacity=".6"></path><path fill-rule="nonzero" d="M32.8340778,32.8340778 C35.9473484,29.7208072 40.846162,29.4813249 44.2341316,32.1156307 L45.0477404,32.8340778 L69.4886495,57.2749869 C72.8613593,60.6476967 72.8613593,66.1159397 69.4886495,69.4886495 C66.3753789,72.6019201 61.4765652,72.8414024 58.0885957,70.2070965 L57.2749869,69.4886495 L32.8340778,45.0477404 C29.461368,41.6750306 29.461368,36.2067876 32.8340778,32.8340778 Z" opacity=".3"></path><path fill-rule="nonzero" d="M130.511351,130.511351 C133.624621,127.39808 138.523435,127.158598 141.911404,129.792903 L142.725013,130.511351 L167.165922,154.95226 C170.538632,158.324969 170.538632,163.793212 167.165922,167.165922 C164.052652,170.279193 159.153838,170.518675 155.765868,167.884369 L154.95226,167.165922 L130.511351,142.725013 C127.138641,139.352303 127.138641,133.88406 130.511351,130.511351 Z" opacity=".7"></path><path fill-rule="nonzero" d="M48.1818182,91.3636364 C52.9515501,91.3636364 56.8181818,95.2302681 56.8181818,100 C56.8181818,104.429037 53.4841984,108.07938 49.1890006,108.578261 L48.1818182,108.636364 L13.6363636,108.636364 C8.86663171,108.636364 5,104.769732 5,100 C5,95.5709632 8.33398346,91.92062 12.6291812,91.4217395 L13.6363636,91.3636364 L48.1818182,91.3636364 Z" opacity=".4"></path><path fill-rule="nonzero" d="M186.363636,91.3636364 C191.133368,91.3636364 195,95.2302681 195,100 C195,104.429037 191.666017,108.07938 187.370819,108.578261 L186.363636,108.636364 L151.818182,108.636364 C147.04845,108.636364 143.181818,104.769732 143.181818,100 C143.181818,95.5709632 146.515802,91.92062 150.810999,91.4217395 L151.818182,91.3636364 L186.363636,91.3636364 Z" opacity=".8"></path><path fill-rule="nonzero" d="M57.2749869,130.511351 C60.6476967,127.138641 66.1159397,127.138641 69.4886495,130.511351 C72.6019201,133.624621 72.8414024,138.523435 70.2070965,141.911404 L69.4886495,142.725013 L45.0477404,167.165922 C41.6750306,170.538632 36.2067876,170.538632 32.8340778,167.165922 C29.7208072,164.052652 29.4813249,159.153838 32.1156307,155.765868 L32.8340778,154.95226 L57.2749869,130.511351 Z" opacity=".5"></path><path fill-rule="nonzero" d="M154.95226,32.8340778 C158.324969,29.461368 163.793212,29.461368 167.165922,32.8340778 C170.279193,35.9473484 170.518675,40.846162 167.884369,44.2341316 L167.165922,45.0477404 L142.725013,69.4886495 C139.352303,72.8613593 133.88406,72.8613593 130.511351,69.4886495 C127.39808,66.3753789 127.158598,61.4765652 129.792903,58.0885957 L130.511351,57.2749869 L154.95226,32.8340778 Z" opacity=".9"></path></symbol><symbol viewBox="0 0 24 24" fill="none" id="icon-location">
<path fill-rule="evenodd" clip-rule="evenodd" d="M11.9912 6.34082C14.0551 6.34092 15.7285 8.01423 15.7285 10.0781C15.7282 12.1417 14.0549 13.8153 11.9912 13.8154C9.92746 13.8154 8.25427 12.1418 8.25391 10.0781C8.25391 8.01417 9.92723 6.34082 11.9912 6.34082ZM11.9912 8.51074C11.1257 8.51074 10.4238 9.21259 10.4238 10.0781C10.4242 10.9434 11.1259 11.6455 11.9912 11.6455C12.8565 11.6454 13.5582 10.9433 13.5586 10.0781C13.5586 9.21265 12.8567 8.51084 11.9912 8.51074Z" fill="currentColor"></path>
<path fill-rule="evenodd" clip-rule="evenodd" d="M11.9912 2C16.4519 2.00007 20.0681 5.61659 20.0684 10.0771C20.0683 12.5884 18.9511 14.9008 17.6621 16.7471C16.5267 18.3732 15.2015 19.7178 14.2051 20.625L13.7998 20.9863C12.822 21.8404 11.4153 21.8937 10.3838 21.1465L10.1826 20.9863C9.16313 20.096 7.61788 18.6055 6.32031 16.7471C5.03131 14.9008 3.9141 12.5884 3.91406 10.0771C3.9143 5.61654 7.53054 2 11.9912 2ZM11.9912 4.16992C8.72897 4.16992 6.08422 6.81497 6.08398 10.0771C6.08402 11.9581 6.93221 13.8328 8.09961 15.5049C9.2585 17.1647 10.6615 18.5247 11.6094 19.3525L11.6982 19.417C11.9119 19.546 12.1749 19.5246 12.3721 19.3525L12.748 19.0176C13.6675 18.1801 14.8688 16.9572 15.8828 15.5049C17.0502 13.8328 17.8984 11.9581 17.8984 10.0771C17.8982 6.81501 15.2534 4.16999 11.9912 4.16992Z" fill="currentColor"></path>
</symbol><symbol viewBox="0 0 200 200" id="icon-mail"><path d="M195.000267,151.818182 C195.000267,166.087914 183.360374,177.727273 169.090642,177.727273 L169.090642,177.727273 L30.9088241,177.727273 C16.6390922,177.727273 4.99973314,166.087914 4.99973314,151.818182 L4.99973314,151.818182 L4.99973314,48.1818181 C4.99973314,33.9120862 16.6390922,22.2727272 30.9088241,22.2727272 L30.9088241,22.2727272 L169.090642,22.2727272 C183.360374,22.2727272 195.000267,33.9120862 195.000267,48.1818181 L195.000267,48.0662598 C195.000267,48.0822586 195.000267,48.0982564 195.000267,48.114253 L195.000267,151.818182 Z M177.727006,64.7687271 L104.952363,115.711548 C102.309097,117.561834 98.8881625,117.767422 96.0720815,116.32831 L95.0471038,115.711548 L22.2717332,64.7687271 L22.2717332,151.818182 C22.2717332,156.462445 26.0378074,160.312233 30.6516453,160.45069 L30.9088241,160.454545 L169.090642,160.454545 C173.82091,160.454545 177.727006,156.54845 177.727006,151.818182 L177.727006,151.818182 L177.727006,64.7687271 Z M169.090642,39.5454544 L30.9088241,39.5454544 C27.5582342,39.5454544 24.6211573,41.5052641 23.1928815,44.3295955 L99.9997332,98.0913635 L176.806585,44.3295955 C175.378309,41.5052641 172.441232,39.5454544 169.090642,39.5454544 L169.090642,39.5454544 Z"></path></symbol><symbol viewBox="0 0 200 200" id="icon-mail-filled"><path d="M100.106027,120.357143 C108.694196,120.357143 120.357143,110.602679 127.248884,105.831473 C143.683036,94.2745536 160.329241,82.8236607 176.86942,71.3727679 C186.199777,64.9051339 195,54.1964286 195,42.3214286 C195,32.9910714 187.260045,25.3571429 178.035714,25.3571429 L21.9642857,25.3571429 C10.6194196,25.3571429 5,34.2633929 5,44.6540179 C5,54.3024554 15.7087054,66.2834821 23.2366071,71.3727679 C39.6707589,82.8236607 56.3169643,94.2745536 72.7511161,105.831473 C79.6428571,110.602679 91.3058036,120.357143 99.8939732,120.357143 L100.106027,120.357143 Z M178.035714,174.642857 C187.366071,174.642857 195,167.008929 195,157.678571 L195,73.4933036 C191.819196,76.9921875 188.214286,80.0669643 184.397321,82.7176339 C166.690848,94.6986607 148.878348,106.785714 131.595982,119.296875 C122.689732,125.870536 111.662946,133.928571 100.106027,133.928571 L99.8939732,133.928571 C88.3370536,133.928571 77.3102679,125.870536 68.4040179,119.296875 C51.1216518,106.679688 33.3091518,94.6986607 15.7087054,82.7176339 C11.7857143,80.0669643 8.18080357,76.9921875 5,73.4933036 L5,157.678571 C5,167.008929 12.6339286,174.642857 21.9642857,174.642857 L178.035714,174.642857 Z"></path></symbol><symbol viewBox="0 0 200 200" id="icon-menu"><path d="M195,149.979167 L195,169.770833 L5,169.770833 L5,149.979167 L195,149.979167 Z M195,90.6041667 L195,110.395833 L5,110.395833 L5,90.6041667 L195,90.6041667 Z M195,31.2291667 L195,51.0208333 L5,51.0208333 L5,31.2291667 L195,31.2291667 Z"></path></symbol><symbol viewBox="0 0 200 200" id="icon-off"><path d="M161.070172,47.5975992 C194.78469,81.3231279 194.778739,135.99317 161.05688,169.711359 C127.335021,203.429547 72.6649785,203.429547 38.9431198,169.711359 C5.22126105,135.99317 5.21531034,81.3231279 38.929828,47.5975992 C42.3015393,44.2247868 47.769056,44.2238941 51.1418685,47.5956054 C54.514681,50.9673166 54.5155737,56.4348334 51.1438624,59.8076459 C24.1722483,86.7880688 24.1770088,130.524103 51.1544958,157.498653 C78.1319828,184.473204 121.868017,184.473204 148.845504,157.498653 C175.822991,130.524103 175.827752,86.7880688 148.856138,59.8076459 C145.484426,56.4348334 145.485319,50.9673166 148.858131,47.5956054 C152.230944,44.2238941 157.698461,44.2247868 161.070172,47.5975992 Z M100.043176,5 C104.471625,5 108.121483,8.33354072 108.620297,12.6281681 L108.678393,13.6352168 L108.678393,99.9873844 C108.678393,104.756483 104.812275,108.622601 100.043176,108.622601 C95.6147273,108.622601 91.9648689,105.28906 91.4660546,100.994433 L91.4079592,99.9873844 L91.4079592,13.6352168 C91.4079592,8.86611823 95.2740775,5 100.043176,5 Z"></path></symbol><symbol viewBox="0 0 200 200" id="icon-organisation-structure"><path d="M99.52 94.07H32.83c-2.5 0-3.29-.78-3.29-3.24V32.87c0-2.38.85-3.22 3.23-3.22 44.49 0 88.98 0 133.47-.03 2.17 0 3.28 1.21 3.27 3.24-.05 19.35-.03 38.71-.03 58.06 0 2.33-.83 3.15-3.18 3.15H99.51Zm0-5.13h63.34q1.5 0 1.5-1.46V36.32q0-1.55-1.52-1.55H36.17q-1.5 0-1.5 1.46v51.16q0 1.55 1.52 1.55h63.34ZM99.53 99.71h55.22q1.32 0 1.32 1.33c0 6.29-.02 12.59.02 18.88 0 .88-.22 1.22-1.14 1.15-.94-.07-1.9-.07-2.84 0-.93.07-1.23-.24-1.22-1.19.04-4.43.02-8.86.02-13.3q0-1.73-1.73-1.73h-45.47q-1.62 0-1.62 1.6c0 4.5-.02 9 .02 13.5 0 .82-.21 1.16-1.08 1.11a23.72 23.72 0 0 0-3.04 0c-.8.05-1.05-.22-1.05-1.03.03-4.6.02-9.2.01-13.8 0-1.35-.01-1.37-1.35-1.37H49.52c-1.36 0-1.4.04-1.4 1.45 0 4.53-.02 9.07.02 13.6 0 .88-.23 1.22-1.14 1.16-1.08-.07-2.16-.03-3.25-.01-.56.01-.79-.19-.79-.77.01-6.6.01-13.2 0-19.79 0-.64.26-.82.85-.81 1.35.03 2.71 0 4.06 0h51.66ZM61.67 148.11c0 6.76-.02 13.53.02 20.29 0 .92-.23 1.22-1.18 1.21-9.94-.03-19.88-.03-29.83 0-.88 0-1.16-.23-1.16-1.14.03-13.56.03-27.12 0-40.68 0-.94.34-1.11 1.18-1.1 9.94.03 19.88.03 29.83 0 .88 0 1.16.22 1.16 1.13-.04 6.76-.02 13.53-.02 20.29Zm-5.13.11c0-5.04-.02-10.08.02-15.11 0-.94-.24-1.3-1.25-1.29-6.49.04-12.98.04-19.48 0-.95 0-1.19.31-1.19 1.23.03 10.08.03 20.15 0 30.23 0 1.02.34 1.23 1.28 1.22 6.46-.04 12.92-.04 19.37 0 .97 0 1.27-.28 1.26-1.26-.04-5-.02-10.01-.02-15.01ZM137.36 148.03c0-6.73.01-13.46-.02-20.19 0-.87.22-1.16 1.13-1.16 9.98.03 19.95.03 29.93 0 .83 0 1.11.22 1.1 1.08-.02 13.59-.02 27.19 0 40.78 0 .78-.2 1.06-1.03 1.06-10.04-.03-20.09-.03-30.13 0-.86 0-1-.34-1-1.08.02-6.83.01-13.66.01-20.49Zm5.13.03c0 5.11.01 10.21-.01 15.32 0 .84.27 1.1 1.11 1.1 6.56-.03 13.12-.03 19.68 0 .93 0 1.12-.31 1.12-1.17-.03-10.11-.03-20.22 0-30.33 0-.87-.23-1.18-1.14-1.17-6.53.03-13.05.04-19.58 0-.97 0-1.2.35-1.19 1.24.03 5 .02 10.01.02 15.01ZM115.52 148.14v20.09q0 1.36-1.31 1.36c-9.81 0-19.62-.02-29.42.02-1.05 0-1.3-.32-1.29-1.32.03-13.43.03-26.85 0-40.28 0-.98.21-1.34 1.28-1.33 9.84.04 19.68.04 29.52 0 1 0 1.25.31 1.24 1.27-.04 6.73-.02 13.46-.02 20.19Zm-26.85-.03c0 5.07.02 10.15-.02 15.22 0 .87.21 1.16 1.12 1.15 6.5-.04 12.99-.04 19.49 0 .91 0 1.13-.27 1.12-1.15-.03-10.12-.03-20.23 0-30.35 0-.86-.2-1.18-1.12-1.18-6.5.04-12.99.04-19.49 0-.92 0-1.13.31-1.12 1.17.04 5.04.02 10.08.02 15.12Z"></path></symbol><symbol preserveAspectRatio="none" viewBox="0 0 86 86" id="icon-panorama"><path fill="currentColor" d="m10.8 35.35.15-.05 4.45 6 2.35-1.75-6.95-9.25q-.3-.35-.75-.05L.35 35.4l-.35.3 1.4 2.5L8 34.6q-3.25 15.7 5.3 28.25 4.05 6.25 10.3 10.35 6.3 4.05 13.65 5.35l.1-.2.05-1.6q0-.85-.15-1.05-.1-.15-.95-.35-6.95-1.5-12.65-5.7T14.5 59.3q-4-6.7-4.45-14.55-.3-3.5.35-7.35l.4-2.05m67.1-5.1-2.25 1.3-.05.05q-.45.2-.15.6 1.15 3.65 1.45 7.45.4 4.7-.4 8.95-1.9 10.2-9.2 17.55-7.3 7.4-17.5 9.35l-1.9.3-.05-.2 4.35-6-2.35-1.8-6.9 9.7 8.4 8.5 1.7-1.6q.4-.4 0-.8l-4.9-4.8Q65.7 76 74.5 61.65q8.85-14.35 3.4-31.4M50.8 46.2q1.5.3 2.5 1.5 1 1.25.95 2.8v8.95q0 .65.6.6h1.4q.65.05.65-.6l-.05-9.05q0-.95-.2-1.75-.55-2.3-2.4-3.7-1.85-1.45-4.2-1.45h-14q-.8 0-1.5.15-2.2.4-3.7 2.1-1.5 1.65-1.7 3.9-.05 1.1-.05 10 0 .4.5.4h1.5q.55 0 .6-.1.1-.05.1-.55v-9.1q0-1.65 1.2-2.9 1.2-1.2 2.9-1.25h14.2l.7.05m.5-13.85v-.1q.05-3.4-2.35-5.9-2.45-2.4-5.85-2.45-3.45-.05-5.9 2.35-2.5 2.45-2.55 5.85-.05 3.45 2.4 5.9 2.4 2.45 5.85 2.5h.1q3.4.05 5.85-2.35 2.4-2.4 2.45-5.8M43 26.6q2.3-.05 4 1.55 1.6 1.7 1.65 4v.1q0 2.35-1.6 3.95-1.65 1.6-3.9 1.6H43q-2.35.05-3.95-1.6-1.65-1.6-1.7-3.95v-.05q.05-2.3 1.7-3.95 1.6-1.65 3.95-1.65m32.15-14.45-1.9-.25q-.5-.05-.5.4l-.95 7.15Q59 4.7 40.5 6.15 22.2 7.6 11.85 24.25l2.6 1.5q5.5-9.6 15.7-14.05Q40.4 7.2 51.3 9.85q10.95 2.65 18 11.4l-.75.15h-6q-.6 0-.55.6v1.75q-.05.65.65.6l10.9-.2q.45 0 .5-.45l1.6-10.95q.05-.55-.5-.6Z"></path></symbol><symbol viewBox="0 0 200 200" id="icon-pause"><path d="M78.0172939,5 C81.7390875,5 84.8047467,7.88147992 85.0689776,11.585533 L85.0820181,11.8230592 L85.0864694,12.0691755 L85.0864694,187.930825 C85.0864694,191.652618 82.2049895,194.718277 78.5009364,194.982508 L78.2634102,194.995549 L78.0172939,195 L34.0518816,195 C30.330088,195 27.2644288,192.11852 27.0001979,188.414467 L26.9871574,188.176941 L26.9827061,187.930825 L26.9827061,12.0691755 C26.9827061,8.34738183 29.864186,5.28172272 33.5682391,5.0174918 L33.8057653,5.00445123 L34.0518816,5 L78.0172939,5 Z M165.948118,5 C169.669912,5 172.735571,7.88147992 172.999802,11.585533 L173.012843,11.8230592 L173.017294,12.0691755 L173.017294,187.930825 C173.017294,191.652618 170.135814,194.718277 166.431761,194.982508 L166.194235,194.995549 L165.948118,195 L121.982706,195 C118.260912,195 115.195253,192.11852 114.931022,188.414467 L114.917982,188.176941 L114.913531,187.930825 L114.913531,12.0691755 C114.913531,8.34738183 117.795011,5.28172272 121.499064,5.0174918 L121.73659,5.00445123 L121.982706,5 L165.948118,5 Z M70.9473085,19.1378882 L41.1206522,19.1378882 L41.1206522,180.861128 L70.9473085,180.861128 L70.9473085,19.1378882 Z M158.878364,19.1378882 L129.051708,19.1378882 L129.051708,180.861128 L158.878364,180.861128 L158.878364,19.1378882 Z"></path></symbol><symbol viewBox="0 0 200 200" id="icon-phone"><path d="M56.9800058,4.83504784 L31.0241642,4.83504784 C23.705268,4.84528977 16.7357683,7.92410632 11.8081317,13.3222208 C6.8800636,18.7208079 4.44790417,25.9420752 5.10577355,33.2220344 C8.11224662,61.5434495 17.7027576,88.6280523 33.1136484,112.417015 C47.0829218,134.401205 65.775974,153.094257 87.8242065,167.104621 C111.438069,182.418567 138.391592,192.006901 166.451506,195.055839 C173.910437,195.731369 181.152848,193.28205 186.555846,188.325171 C191.958843,183.368293 195.021689,176.363248 194.991927,169.030981 L194.991999,143.025795 C195.317307,130.022893 185.687205,118.657132 172.594568,116.810081 C164.832529,115.785991 157.287366,113.906413 150.025446,111.196615 L148.337765,110.627258 C139.278902,107.912826 129.375906,110.33524 122.572388,117.063043 L116.32282,123.303664 L115.28376,122.658533 C100.060942,112.752253 87.0777197,99.7690313 77.1714399,84.5462136 L76.5157006,83.5052251 L82.732682,77.2920256 C89.9152208,70.0288471 92.203131,59.3010901 88.6260238,49.7849442 C85.9235602,42.5426076 84.043982,34.997444 83.0304767,27.3129606 C81.1902965,14.2910019 70.0502451,4.71017425 56.9800058,4.83504784 Z M31.0338587,22.1961594 L57.1491595,22.1961594 C61.5065742,22.1545285 65.2203633,25.348515 65.830149,29.662753 C67.003952,38.5654851 69.2010264,47.3851696 72.3685604,55.8737646 C73.5682637,59.0653959 72.805627,62.6413149 70.4228633,65.0508945 L59.4333338,76.0402317 C56.6703326,78.803233 56.0940789,83.0718169 58.0255218,86.4685625 C71.1544731,109.557885 90.2720885,128.6755 113.361411,141.804451 C116.758157,143.735894 121.02674,143.15964 123.789742,140.396639 L134.813519,129.372862 C137.188659,127.024346 140.764578,126.261709 143.936626,127.454078 C152.444804,130.628947 161.264488,132.826021 170.247026,134.010727 C174.533683,134.615825 177.743717,138.404412 177.634391,142.810483 L177.63172,169.066213 C177.641712,171.545535 176.620763,173.88055 174.819764,175.532842 C173.018765,177.185135 170.604628,178.001575 168.170439,177.781585 C142.966256,175.041514 118.605665,166.375579 97.2024258,152.495657 C77.2377116,139.808807 60.3683717,122.939467 47.7248722,103.042282 C33.7554197,81.4777757 25.0875167,56.9987143 22.3822931,31.524199 C22.1763099,29.2329485 22.9870297,26.8258594 24.6297191,25.0263304 C26.2724924,23.2267094 28.5963841,22.2001169 31.0338587,22.1961594 Z"></path></symbol><symbol viewBox="0 0 200 200" id="icon-pin"><path d="M100,5 C143.536489,5 178.829787,40.2932976 178.829787,83.8297872 C178.829787,110.464783 164.489427,136.755444 140.785032,161.776749 C132.616595,170.398989 123.882791,178.259412 115.147003,185.215688 C113.616416,186.434489 112.139407,187.582238 110.724796,188.656578 L110.724796,188.656578 L106.676977,191.657011 L103.363608,193.981582 C101.326771,195.339473 98.6732293,195.339473 96.6363924,193.981582 L96.6363924,193.981582 L93.3230227,191.657011 L89.2752041,188.656578 C87.860593,187.582238 86.3835839,186.434489 84.8529972,185.215688 C76.1172091,178.259412 67.3834048,170.398989 59.2149678,161.776749 C35.5105734,136.755444 21.1702128,110.464783 21.1702128,83.8297872 C21.1702128,40.2932976 56.4635107,5 100,5 Z M100,17.1276596 C63.1614321,17.1276596 33.2978723,46.9912191 33.2978723,83.8297872 C33.2978723,106.716068 46.2447458,130.452003 68.0190748,153.436016 C75.7681909,161.615639 84.0889079,169.104284 92.4076411,175.728461 L92.4076411,175.728461 L96.6015205,178.991932 C97.940504,180.008943 99.2175296,180.95428 100.423653,181.825369 L100.423653,181.825369 L100,181.514043 L101.437591,180.463371 L104.073093,178.477466 L107.592359,175.728461 C115.911092,169.104284 124.231809,161.615639 131.980925,153.436016 C153.755254,130.452003 166.702128,106.716068 166.702128,83.8297872 C166.702128,46.9912191 136.838568,17.1276596 100,17.1276596 Z M100,53.5106372 C116.744804,53.5106372 130.319149,67.0849826 130.319149,83.8297861 C130.319149,100.57459 116.744804,114.148935 100,114.148935 C83.2551964,114.148935 69.6808511,100.57459 69.6808511,83.8297861 C69.6808511,67.0849826 83.2551964,53.5106372 100,53.5106372 Z M100,65.6382968 C89.9531178,65.6382968 81.8085106,73.782904 81.8085106,83.8297861 C81.8085106,93.8766683 89.9531178,102.021276 100,102.021276 C110.046882,102.021276 118.191489,93.8766683 118.191489,83.8297861 C118.191489,73.782904 110.046882,65.6382968 100,65.6382968 Z"></path></symbol><symbol viewBox="0 0 200 200" id="icon-play"><path d="M105.596342,27.5176792 L18.2077209,164.299869 C14.9760676,169.358109 18.6089313,175.990106 24.6113787,175.990106 L199.388621,175.990106 C205.391069,175.990106 209.023932,169.358109 205.792279,164.299869 L118.403658,27.5176792 C115.415545,22.8406329 108.584455,22.8406329 105.596342,27.5176792 Z M112,45.7202676 L185.512828,160.792084 L38.4795729,160.792084 L112,45.7202676 Z" transform="rotate(90 112 100)"></path></symbol><symbol viewBox="0 0 35 43" fill="none" id="icon-play-inverted"><path d="M3.33366 4.97759L29.7689 21.4996L3.33366 38.0216V4.97759Z" stroke="#000000" stroke-width="5.33333"></path></symbol><symbol viewBox="0 0 200 200" id="icon-plus"><path d="M107.221166,99.7992851 L165.436917,41.5831293 C167.48654,39.5335012 167.48654,36.2104324 165.436917,34.1610667 C163.387294,32.111701 160.064233,32.1114386 158.014872,34.1610667 L99.7988587,92.3772225 L41.5831075,34.1610667 C39.5334844,32.1114386 36.2104237,32.1114386 34.161063,34.1610667 C32.1117023,36.2106948 32.1114399,39.5337636 34.161063,41.5831293 L92.3768142,99.7990227 L34.161063,158.015178 C32.1114399,160.064807 32.1114399,163.387875 34.161063,165.437241 C35.1857433,166.461924 36.5289799,166.974134 37.8722164,166.974134 C39.215453,166.974134 40.5584271,166.461924 41.5833699,165.437241 L99.7988587,107.221348 L158.01461,165.437241 C159.03929,166.461924 160.382527,166.974134 161.725763,166.974134 C163.069,166.974134 164.411974,166.461924 165.436917,165.437241 C167.48654,163.387613 167.48654,160.064544 165.436917,158.015178 L107.221166,99.7992851 Z" transform="rotate(-45 99.8 99.8)"></path></symbol><symbol viewBox="0 0 200 200" id="icon-pointed-double-arrow-circle"><path d="M33.36 61.77c-1.97-1.14-3.83-2.21-5.97-3.44C42.78 33.72 64.45 19.1 93.46 16.75c28.94-2.34 52.75 8.47 71.97 30.52.25-1.78.47-3.25.67-4.73.52-3.86 1.05-7.73 1.51-11.6.11-.94.58-1.06 1.33-.96 1.39.18 2.78.35 4.17.54.92.12 1.27.43 1.1 1.56-.91 5.97-1.68 11.97-2.51 17.96-.32 2.3-.74 4.59-.98 6.89-.1.98-.54 1.12-1.35 1.13-4.17.06-8.34.16-12.51.25-4.17.08-8.34.13-12.51.26-1.06.03-1.53-.22-1.46-1.37.09-1.36.08-2.73 0-4.08-.05-1 .32-1.28 1.29-1.28 4.62.02 9.23 0 13.85-.03.55 0 1.09-.09 2.07-.18-8.31-10.03-18.08-17.42-29.7-22.41-11.65-5-23.8-6.85-36.4-5.87-12.63.98-24.28 4.93-34.96 11.71-10.69 6.78-19.19 15.72-25.67 26.71M110.51 176.82c2.27-.41 4.56-.73 6.81-1.25 14.48-3.34 27.05-10.21 37.56-20.71 11.35-11.34 18.56-24.96 21.43-40.75 2.28-12.55 1.53-24.98-2.39-37.17-.34-1.05-.19-1.56.8-2.05 1.49-.74 2.91-1.63 4.36-2.46.07-.04.17-.02.56-.07 7.97 25.08 6.08 49.22-7.82 71.78-13.87 22.52-34.45 35.34-60.78 39.47.44.51.74.9 1.09 1.24 3.33 3.26 6.65 6.52 10.03 9.74.81.77.79 1.3-.01 2.02-1.26 1.15-2.46 2.38-3.63 3.52-6.41-6.45-12.84-12.91-19.45-19.57 5.12-7.13 10.47-14.57 15.9-22.13 1.84 1.38 3.58 2.69 5.47 4.11-3.44 4.67-6.82 9.23-10.19 13.8l.27.45M3.2 90.38C2.12 88.4 1.1 86.53 0 84.52c1.02-.55 1.93-1.06 2.84-1.55 6.78-3.63 13.56-7.24 20.32-10.9.88-.48 1.36-.4 1.96.39 5.16 6.84 10.36 13.66 15.54 20.48.1.13.17.29.33.56-1.82 1.33-3.61 2.64-5.47 3.99-3.43-4.65-6.79-9.19-10.15-13.73l-.42.03c-.34 1.72-.7 3.44-1.01 5.17-.89 5.04-1.01 10.14-.78 15.23.53 11.67 3.58 22.68 9.24 32.9 9.78 17.67 24.25 29.86 43.35 36.45 3.1 1.07 6.34 1.72 9.5 2.6.35.1.88.45.89.69.07 2.01.04 4.02.04 6.3-23.54-4.51-42.21-16.24-55.52-35.95-13.3-19.71-17.11-41.45-12.23-65.14-5.28 2.89-10.21 5.59-15.25 8.34"></path><path d="M36.26 119.85c.66-2.18 1.28-4.22 1.96-6.43 5.42 1.6 10.77 3.17 16.46 4.85-6.08-17.63-3.91-33.81 7.36-48.42 6.36-8.24 14.77-13.68 24.78-16.57 18.45-5.33 36.94 1.2 47.08 11.73-1.61 1.23-3.17 2.49-4.83 3.62-.26.18-1.04-.13-1.39-.43-3.77-3.16-7.94-5.64-12.54-7.39-4.85-1.85-9.88-2.82-15.04-2.74-20.63.32-37.28 14.53-41.25 34.26-1.44 7.19-.96 14.3 1.52 21.24.17.49.4.95.79 1.85 2.46-5.47 4.77-10.59 7.13-15.85 2.05.93 3.99 1.8 6.08 2.74-.76 1.69-1.46 3.28-2.19 4.86-2.94 6.38-5.9 12.75-8.84 19.13-.29.62-.44 1.14-1.41.86-8.26-2.35-16.54-4.64-24.81-6.96-.25-.07-.48-.2-.86-.36M66.66 135.65c1.62-1.24 3.17-2.39 4.67-3.6.81-.65 1.19.03 1.65.41 4.7 3.97 10 6.83 15.92 8.49 23.73 6.66 48.1-8.37 52.85-32.6 1.36-6.97.98-13.86-1.25-20.63-.11-.33-.23-.66-.37-.98-.03-.07-.13-.1-.44-.33-1.75 5.37-3.47 10.66-5.26 16.14-2.11-.68-4.16-1.35-6.35-2.06.92-2.75 1.78-5.37 2.65-7.97 1.91-5.69 3.84-11.37 5.72-17.08.29-.87.58-1.11 1.57-.94 8.2 1.41 16.41 2.73 24.62 4.06 1.11.18 1.6.53 1.21 1.79-.4 1.29-.62 2.65-.77 3.99-.11 1.04-.58 1.22-1.49 1.05-4.95-.94-9.9-1.85-14.85-2.76-.16-.03-.33 0-.73 0 5.85 16.94 3.92 32.75-6.68 47.19-6.02 8.2-14.06 13.81-23.73 16.99-18.61 6.13-37.67.19-48.93-11.14"></path><path d="M100.27 107.12c-3.9-.01-6.79-2.93-6.78-6.83.01-3.9 2.93-6.79 6.84-6.78 3.9.01 6.79 2.93 6.78 6.83-.01 3.9-2.93 6.79-6.83 6.78"></path></symbol><symbol viewBox="0 0 200 200" id="icon-quote"><path d="M39.8500882,180.758377 L106.199295,100 L39.8500882,19.2416226 L5,46.0493827 L52.2486772,100 L5,153.950617 L39.8500882,180.758377 Z M128.985891,180.758377 L195,100 L128.985891,19.2416226 L94.1358025,46.0493827 L141.049383,100 L94.1358025,153.950617 L128.985891,180.758377 Z"></path></symbol><symbol viewBox="0 0 200 200" id="icon-return"><path d="M138.75 94.2v.05q6.253 6.185 6.25 15V121q-.004 8.694-6.25 14.9-6.161 6.2-14.85 6.2h-23.05v10h23.05q12.811 0 21.9-9.15 9.204-9.144 9.2-21.95v-11.75q-.003-12.968-9.15-22.1h-.05q-9.093-9.158-21.9-9.15H62.05l21.6-21.6-7.05-7.05L42.9 83l33.7 33.7 7.05-7.05L62.05 88h61.85q8.675.007 14.85 6.2Z"></path></symbol><symbol viewBox="0 0 200 200" id="icon-robot"><path d="M76.98 37.27c-.57-2.14-1.09-4.08-1.61-6.02-1.25-4.66-2.48-9.33-3.78-13.98-.25-.91 0-1.19.82-1.4 1.4-.36 2.78-.81 4.33-1.27.47 1.84.92 3.61 1.37 5.39 1.36 5.41 2.72 10.82 4.04 16.23.2.81.55 1.07 1.38 1.07 10.68-.03 21.37-.03 32.05 0 .92 0 1.2-.36 1.4-1.17 1.67-6.79 3.39-13.58 5.09-20.36.09-.34.19-.67.33-1.15 1.66.5 3.29.96 4.88 1.52.18.06.3.71.22 1.02-1.02 3.92-2.08 7.82-3.13 11.73l-1.95 7.2c-.09.34-.13.69-.21 1.14.47.02.85.06 1.23.06 2.39 0 4.77.03 7.16 0 6.74-.1 12.96 4.48 14.13 12.12.08.52.04 1.07.04 1.6 0 11.57-.04 23.15.02 34.72.03 6.59-5.13 12.86-12.14 13.6-.95.1-1.91.18-2.87.18-20.48.01-40.96 0-61.43 0-7.12 0-13.05-5.16-14-12.18-.06-.46-.03-.92-.03-1.39V50.89c0-6.67 5.11-12.63 11.74-13.37 3.1-.35 6.25-.18 9.38-.24h1.55Zm22.5 56.8c10.33 0 20.66.01 30.99 0 5.02 0 8.92-3.95 8.92-8.95 0-11.08-.11-22.16.05-33.23.07-4.6-3.73-9.27-9.25-9.24-12.36.07-24.72.02-37.08.02-8.19 0-16.38-.01-24.58 0-4.87.01-8.82 3.99-8.82 8.84v33.76c0 .5 0 1 .1 1.49.9 4.38 4.49 7.3 8.99 7.3h30.67ZM99.56 105.43c10.51 0 21.01-.02 31.52 0 7.58.01 14.19 2.66 19.9 7.57 5.93 5.1 9.42 11.59 10.62 19.3.16 1.05.25 2.12.25 3.18.02 15.92 0 31.84.03 47.76 0 1-.22 1.42-1.29 1.34-1.1-.09-2.21-.04-3.31-.01-.6.01-.86-.22-.82-.82.02-.32 0-.64 0-.96 0-15.46.06-30.92-.02-46.37-.07-13.08-9.47-23.23-21.16-25.17-1.5-.25-3.03-.41-4.55-.41-20.8-.03-41.6-.02-62.4-.02-12.68 0-23.26 8.98-25.29 21.49a30.43 30.43 0 0 0-.4 4.66c-.03 15.35-.02 30.7-.02 46.05q0 1.54-1.58 1.54c-1 0-1.99-.02-2.99 0-.59.01-.87-.2-.82-.81.02-.28 0-.57 0-.85 0-15.35.08-30.7-.02-46.05-.1-14.84 10.55-27.99 25.32-30.91 1.7-.34 3.45-.48 5.18-.49 10.61-.04 21.23-.02 31.84-.02Z"></path><path d="M79.68 71.07c-4 .04-8.34-3.26-8.43-8.46-.07-4.5 3.93-8.18 8.47-8.29 3.54-.09 8.37 2.96 8.35 8.39-.02 5.16-4.45 8.41-8.39 8.36Zm-2.88-8.4c0 1.8 1.12 2.98 2.87 3 1.66.02 2.99-1.3 2.99-2.97 0-1.71-1.23-2.95-2.96-2.96-1.8 0-2.9 1.1-2.9 2.92ZM119.41 54.35c3.6-.22 8.38 2.86 8.4 8.31.02 5.32-4.56 8.46-8.44 8.43-4-.03-8.36-3.32-8.35-8.42.02-5.44 4.86-8.57 8.39-8.32Zm2.88 8.29c0-1.8-1.12-2.9-2.93-2.89-1.71.02-2.95 1.29-2.92 2.99.03 1.64 1.29 2.91 2.91 2.93 1.77.03 2.95-1.18 2.94-3.04Z"></path></symbol><symbol viewBox="0 0 200 200" id="icon-routes"><path d="M100.94 192.44H51.96q-1.76 0-1.76-1.75c0-1.34.03-2.68 0-4.03-.02-.76.29-1.07 1.03-1.02.4.03.8 0 1.21 0h96.08c11.09 0 21.02-8.5 22.68-19.41 1.9-12.46-6.03-24.11-18.28-26.77-1.38-.3-2.83-.43-4.25-.43-20.04-.03-40.08-.23-60.12.05-15.47.21-28.31-10.98-30.77-25.67-2.7-16.18 8.05-30.76 23.17-34.01 1.95-.42 3.98-.59 5.98-.59 20.31-.04 40.62-.03 60.92-.03q1.96 0 1.96 1.98c0 1.25-.03 2.51.01 3.76.03.82-.29 1.16-1.1 1.09-.31-.03-.63 0-.94 0-20.22 0-40.44.09-60.65-.03-10.8-.06-21.19 8.51-22.72 19.93-1.53 11.44 5.9 24.21 19.28 26.41 1.45.24 2.93.32 4.4.32 20.08.02 40.17.14 60.25-.03 14.19-.12 26.87 10.52 29.45 24.93 2.99 16.68-8.25 32.18-24.55 34.97-1.66.28-3.38.34-5.07.34-15.75.02-31.49.01-47.24.01Z"></path><path d="M32.29 192.6c-2.86-4.52-5.56-8.62-8.1-12.81-5.2-8.56-10.02-17.32-13.56-26.72-1.68-4.48-3.12-9.03-3.13-13.88-.02-9.8 6.09-18.9 15.08-22.81 15.25-6.61 31.78 3.78 34.16 18.93.85 5.42-.29 10.56-2.05 15.62-3.34 9.63-8.15 18.55-13.37 27.26-2.84 4.75-5.86 9.38-9.03 14.43Zm.02-12.79c.35-.49.68-.9.95-1.34 1.78-3 3.62-5.96 5.31-9.01 4.05-7.31 7.87-14.73 10.34-22.77 1-3.27 1.67-6.61 1.19-10.03-1.33-9.47-9.58-16.15-19.33-15.41-9.01.69-16.41 8.35-16.48 17.37-.03 3.45.83 6.73 1.94 9.93 3.81 10.91 9.48 20.89 15.54 30.66.11.18.29.32.55.59ZM167.69 85.41c-1.56-2.37-3.03-4.54-4.44-6.76-6.31-9.93-12.31-20.04-16.54-31.05-1.56-4.05-2.95-8.3-3.52-12.58-1.08-7.96 1.6-14.91 7.38-20.53 5.35-5.21 11.84-7.58 19.28-7.02 10.59.8 19.93 9.21 22.15 19.62 1.17 5.49.18 10.73-1.52 15.91-3.02 9.17-7.47 17.68-12.36 25.96-3.14 5.31-6.55 10.45-9.83 15.67-.12.18-.26.35-.58.77Zm.06-12.25c1.81-3.03 3.45-5.68 5-8.38 4.37-7.64 8.47-15.41 11.24-23.81 1.48-4.49 2.42-9.03 1.04-13.77-2.52-8.68-10.87-14.06-19.89-12.75-8.99 1.31-15.3 8.6-15.34 17.64-.01 3.22.8 6.27 1.81 9.27 3.08 9.1 7.62 17.5 12.46 25.75 1.12 1.91 2.31 3.79 3.68 6.05Z"></path><path d="M32.25 142.52c-1.95-.01-3.33-1.43-3.31-3.41.02-1.95 1.46-3.38 3.39-3.36 1.86.02 3.44 1.62 3.4 3.44-.04 1.88-1.57 3.34-3.49 3.33ZM167.77 28.87c2 .01 3.32 1.38 3.3 3.4-.02 1.91-1.56 3.45-3.4 3.4-1.78-.05-3.43-1.75-3.4-3.5.04-1.86 1.57-3.31 3.5-3.3Z"></path></symbol><symbol viewBox="0 0 200 200" id="icon-shaking-hands"><path d="M104.61 143.02c2.42 2.43 4.96 4.97 7.5 7.52 1.09 1.1 2.35 1.87 3.91 2.09 3 .42 5.75-.97 7.11-3.59 1.37-2.66.97-5.66-1.17-7.88-2.24-2.32-4.56-4.57-6.83-6.86-.32-.32-.63-.66-.86-.9 1.5-1.48 2.95-2.91 4.51-4.44.11.1.45.39.76.7 2.29 2.28 4.55 4.57 6.85 6.84 1.88 1.85 4.12 2.54 6.68 1.8 2.63-.76 4.3-2.56 4.86-5.24.48-2.33-.18-4.41-1.85-6.11-2.29-2.33-4.62-4.63-6.93-6.94-.29-.29-.56-.6-.74-.79 1.49-1.51 2.92-2.95 4.45-4.49.4.38.92.85 1.41 1.34 2.08 2.07 4.14 4.16 6.23 6.22 2.78 2.74 7.02 2.79 9.7.13 2.69-2.67 2.72-6.95-.04-9.69-13.71-13.61-27.45-27.19-41.17-40.78-1.1-1.09-2.15-2.23-3.29-3.27-1.9-1.72-3.57-1.66-5.38.15-6.47 6.45-13.06 12.78-19.34 19.41-6.38 6.73-17.31 6.92-23.71.01-3.3-3.56-6.87-6.88-10.31-10.31-.12-.12-.2-.26-.38-.48.31-.34.6-.68.91-1 11.1-11.13 22.19-22.26 33.3-33.38 4.12-4.12 8.27-8.2 12.39-12.32 2.78-2.77 6.09-4.16 10.04-4.12 4.61.05 9.22.04 13.83 0 3.62-.03 6.74 1.17 9.32 3.68 3.57 3.48 7.07 7.03 10.61 10.55 1.4 1.39 2.87 2.71 4.19 4.16 1.17 1.28 2.54 1.74 4.24 1.74 16.22-.03 32.44-.01 48.66-.01 1.63 0 3.27.02 4.9-.01.75-.01 1.05.26 1.04 1.02-.04 1.47-.03 2.93 0 4.4.01.72-.29.99-.98.94-.25-.02-.5 0-.75 0h-53.56c-3.05 0-5.61-1.04-7.77-3.22-4.75-4.79-9.56-9.53-14.29-14.33-1.72-1.75-3.73-2.59-6.17-2.57-4.32.04-8.63.02-12.95 0-2.34-.01-4.29.75-5.96 2.43C83.97 49.07 70.33 62.7 56.7 76.33c-.35.35-.68.72-1.15 1.23 2.72 2.62 5.2 5.38 8.06 7.67 3.64 2.9 8.91 2.31 12.27-1.03 6.56-6.53 13.1-13.09 19.65-19.64 4.73-4.73 10.43-4.72 15.17-.02 14.29 14.16 28.58 28.31 42.89 42.45 2.24 2.22 4.07 4.62 4.8 7.78 1.67 7.32-3.48 14.82-10.94 15.8-.94.12-1.9.22-2.97.34.08 3.85-1.03 7.31-3.81 10.1-2.78 2.79-6.16 4.09-10.24 3.92-.15 3.9-1.08 7.46-3.93 10.27-2.84 2.81-6.28 4.02-10.32 3.99-.11 1.14-.14 2.3-.35 3.42-.97 5.12-4.07 8.48-8.96 10.05-4.92 1.58-9.37.41-13.12-3.1-3-2.8-5.85-5.76-8.75-8.67-5.87-5.86-11.76-11.72-17.6-17.61-2.31-2.34-5.05-3.43-8.33-3.43-19.11.02-38.22.01-57.33.01q-1.7 0-1.71-1.72v-2.77q0-1.86 1.81-1.87h12.07c15.17 0 30.34.01 45.51 0 4.91 0 9.03 1.7 12.49 5.19 8.57 8.62 17.18 17.2 25.77 25.79 2.6 2.59 5.72 3.15 8.57 1.55 3.97-2.23 4.69-7.48 1.45-10.83-2.24-2.32-4.56-4.57-6.84-6.85-.29-.29-.57-.6-.76-.8 1.51-1.51 2.98-2.98 4.53-4.54"></path></symbol><symbol preserveAspectRatio="none" viewBox="0 0 200 200" id="icon-smartphone"><defs><path fill="currentColor" d="M145.75 18.8q0-10.313-10.15-10.3H64.5q-10.2-.008-10.2 10.3v162.35q0 10.362 10.2 10.35h71.1q10.15.017 10.15-10.35V18.8m-10.15-7.3q7.15.013 7.15 7.3v162.35q0 7.333-7.15 7.35H64.5q-7.2-.012-7.2-7.35V18.8q0-7.292 7.2-7.3h15.05q4.002.192 4 4.35 0 7.481 7.2 7.45h18.6q7.3.019 7.3-7.45-.002-4.159 4-4.35h14.95m-21 0q-.95 1.697-.95 4.35 0 4.431-4.3 4.45h-18.6q-4.2-.031-4.2-4.45 0-2.653-1-4.35h29.05m-10.75 4.35q.015-1.495-1.15-2.65l.1.05q-1.036-1.178-2.75-1.2-1.541-.016-2.65 1.15-1.062 1.172-1.05 2.65.009 1.601 1.05 2.7l.05.1q1.106.995 2.6 1 1.666-.005 2.65-1.05 1.142-1.132 1.15-2.75m-3.35-.65.05.1h.05q.235.245.25.55.007.382-.25.65-.215.155-.55.15-.28.004-.5-.2-.208-.23-.2-.6.012-.321.25-.6.191-.184.45-.2.286-.022.45.15Z" id="icon-smartphone_smartphone"></path></defs><use xlink:href="#icon-smartphone_smartphone"></use></symbol><symbol viewBox="0 0 200 200" id="icon-success"><defs><path id="icon-success_success-a" d="M99.875,4.875 C152.556818,4.875 194.875,47.1931818 194.875,99.875 C194.875,152.556818 152.556818,194.875 99.875,194.875 C47.1931818,194.875 4.875,152.556818 4.875,99.875 C4.875,47.1931818 47.1931818,4.875 99.875,4.875 Z M99.875,22.1477273 C56.6931818,22.1477273 22.1477273,56.6931818 22.1477273,99.875 C22.1477273,143.056818 56.6931818,177.602273 99.875,177.602273 C143.056818,177.602273 177.602273,143.056818 177.602273,99.875 C177.602273,56.6931818 143.056818,22.1477273 99.875,22.1477273 Z M123.396289,74.5787889 C127.433659,70.5414186 133.97953,70.5414186 138.0169,74.5787889 C141.713852,78.2757405 142.058102,84.1330472 138.871375,88.2314833 L138.871375,88.2314833 L138.746721,88.3917999 L138.159506,89.0567941 L95.7952335,131.421067 C92.0982819,135.118018 86.2409752,135.462268 82.1425391,132.275541 L82.1425391,132.275541 L81.9822225,132.150888 L81.3172283,131.563673 L61.9829556,112.2294 C57.9455853,108.19203 57.9455853,101.646159 61.9829556,97.6087889 C65.6799072,93.9118373 71.5372138,93.5675873 75.63565,96.7543144 L75.63565,96.7543144 L75.7959665,96.8789681 L76.4607373,97.4659856 L88.4839278,109.486928 Z"></path></defs><use xlink:href="#icon-success_success-a"></use></symbol><symbol viewBox="0 0 200 200" id="icon-thumbs-up"><path fill-rule="evenodd" d="M145.462338,195 L56.5715234,195 C53.5748378,195 51.1427452,192.567907 51.1427452,189.571222 L51.1427452,80.9992762 L21.2844648,80.9992762 L21.2844648,184.142444 L34.6428785,184.142444 L34.6428785,195 L15.8556866,195 C12.859001,195 10.4269084,192.567907 10.4269084,189.571222 L10.4269084,75.5704979 C10.4269084,72.5738123 12.859001,70.1417197 15.8556866,70.1417197 L56.6439071,70.1417197 C59.6405927,70.1417197 62.0726853,72.5738123 62.0726853,75.5704979 C62.0726853,75.8708903 62.047351,76.1640443 62.0003016,76.44996 L62.0003016,184.142444 L145.462338,184.142444 C147.847382,184.142444 150.080419,183.215932 151.756102,181.533011 C153.395593,179.886281 154.293151,177.689436 154.285913,175.344204 C154.264197,170.3823 150.38805,166.498914 145.462338,166.498914 C142.465653,166.498914 140.03356,164.066822 140.03356,161.070136 C140.03356,158.07345 142.465653,155.641358 145.462338,155.641358 L153.605506,155.641358 C155.990549,155.641358 158.223586,154.714846 159.899269,153.031925 C161.53876,151.385196 162.436318,149.18835 162.425461,146.843118 C162.407365,141.884834 158.531217,138.001448 153.605506,138.001448 C150.60882,138.001448 148.176727,135.569355 148.176727,132.572669 C148.176727,129.575984 150.60882,127.143891 153.605506,127.143891 L161.748673,127.143891 C164.133716,127.143891 166.366754,126.21738 168.038817,124.534458 C169.681928,122.887729 170.579486,120.690883 170.568628,118.345651 C170.550532,113.383748 166.670765,109.500362 161.748673,109.500362 C158.751987,109.500362 156.319895,107.068269 156.319895,104.071584 C156.319895,101.074898 158.751987,98.6428054 161.748673,98.6428054 L169.89184,98.6428054 C172.273264,98.6428054 174.506302,97.716294 176.181985,96.0369919 C177.821476,94.3902625 178.722653,92.1897977 178.715415,89.8409463 C178.693699,84.8826622 174.813933,80.9992762 169.89184,80.9992762 L105.426908,80.9992762 C103.64265,80.9992762 101.974205,80.1234333 100.960833,78.6576631 C99.9510807,77.1882738 99.7194528,75.3207741 100.349191,73.6523296 L116.635526,30.5731647 C116.874392,29.8420892 117.098782,28.1265953 117.098782,26.715113 C117.098782,20.6240238 111.974015,15.8575565 105.426908,15.8575565 C101.543522,15.8575565 97.9424328,17.934969 95.799875,21.4166254 L73.8133231,57.7134367 L64.5264931,52.0892224 L86.5347601,15.7598385 C90.689585,9.00643834 97.7433776,5 105.426908,5 C118.061485,5 127.956338,14.540173 127.956338,26.715113 C127.956338,29.3281649 127.550989,32.1185569 126.870582,34.1851118 L113.28416,70.1417197 L169.89184,70.1417197 C180.695109,70.1417197 189.522302,78.9580555 189.573092,89.7975161 C189.591067,95.0561926 187.571561,99.9891424 183.872754,103.698808 C182.218786,105.360014 180.318714,106.691874 178.255778,107.654577 C180.242711,110.727266 181.411708,114.382643 181.429804,118.298602 C181.451519,123.55004 179.432013,128.486609 175.736825,132.196274 C174.079238,133.85748 172.179166,135.19296 170.11623,136.155663 C172.103163,139.224732 173.27216,142.88011 173.283017,146.799688 C173.308351,152.051126 171.288846,156.984076 167.593658,160.693741 C165.936071,162.354947 164.035998,163.690426 161.973063,164.65313 C163.959995,167.725818 165.128992,171.381195 165.13985,175.300773 C165.165184,180.552212 163.145679,185.485161 159.45049,189.194826 C155.722729,192.940683 150.757207,195 145.462338,195"></path></symbol><symbol viewBox="0 0 24 24" fill="none" id="icon-time"><path d="M12.001 6.77148C12.6055 6.77148 13.0957 7.26168 13.0957 7.86621V11.5469L15.4502 13.9023L15.5254 13.9854C15.8764 14.4153 15.8511 15.0493 15.4502 15.4502C15.0493 15.8511 14.4153 15.8764 13.9854 15.5254L13.9023 15.4502L11.2266 12.7754C11.0213 12.5701 10.9062 12.2913 10.9062 12.001V7.86621C10.9062 7.26168 11.3964 6.77148 12.001 6.77148Z" fill="currentColor"></path><path fill-rule="evenodd" clip-rule="evenodd" d="M12.001 1.90625C17.576 1.90625 22.0957 6.42589 22.0957 12.001C22.0957 17.576 17.576 22.0957 12.001 22.0957C6.42589 22.0957 1.90625 17.576 1.90625 12.001C1.90625 6.42589 6.42589 1.90625 12.001 1.90625ZM12.001 4.0957C7.63495 4.0957 4.0957 7.63495 4.0957 12.001C4.0957 16.367 7.63495 19.9062 12.001 19.9062C16.367 19.9062 19.9062 16.367 19.9062 12.001C19.9062 7.63495 16.367 4.0957 12.001 4.0957Z" fill="currentColor"></path></symbol><symbol viewBox="0 0 200 200" id="icon-twitter"><path d="M194.627932,41.3391603 C187.621974,44.4101605 180.141036,46.50223 172.264281,47.4574768 C180.291446,42.633875 186.466189,35.0313734 189.387317,25.9604757 C181.858881,30.3419798 173.515062,33.531399 164.632932,35.3076844 C157.539894,27.7367612 147.430732,23 136.205366,23 C114.696679,23 97.2569893,40.3918081 97.2569893,61.8177577 C97.2569893,64.8966525 97.6132244,67.8571282 98.2623641,70.6912903 C65.8845465,69.1676321 37.1878255,53.6626339 17.9827924,30.2235608 C14.6025166,35.9234634 12.7105121,42.5470344 12.7105121,49.7627006 C12.7105121,63.2624699 19.5977251,75.1280566 30.031457,82.0989901 C23.6429732,81.8937305 17.6344736,80.1411288 12.3938586,77.2359153 L12.3938586,77.717486 C12.3938586,96.5461117 25.7962168,112.248475 43.6317237,115.82473 C40.3622766,116.70103 36.9107537,117.174707 33.3721512,117.174707 C30.8864214,117.174707 28.503604,116.937868 26.1207866,116.495771 C31.1159952,131.913928 45.4762302,143.155841 62.5676013,143.471626 C49.2681555,153.884606 32.4142744,160.089763 14.2621141,160.089763 C11.1747427,160.089763 8.0952877,159.908187 5,159.560824 C22.3288613,170.565899 42.745094,177 64.8237573,177 C136.498271,177 175.644556,117.822064 175.644556,66.5860973 C175.644556,64.9361255 175.644556,63.2703645 175.525811,61.6124981 C183.133411,56.1731173 189.775218,49.2969191 195,41.4970523 L194.627932,41.3391603 Z"></path></symbol><symbol viewBox="0 0 200 200" id="icon-warning"><path d="M100,5 C152.467051,5 195,47.5329488 195,100 C195,152.467051 152.467051,195 100,195 C47.5329488,195 5,152.467051 5,100 C5,47.5329488 47.5329488,5 100,5 Z M100,22.2727273 C57.0724126,22.2727273 22.2727273,57.0724126 22.2727273,100 C22.2727273,142.927587 57.0724126,177.727273 100,177.727273 C142.927587,177.727273 177.727273,142.927587 177.727273,100 C177.727273,57.0724126 142.927587,22.2727273 100,22.2727273 Z M100.086364,125.909091 C104.856096,125.909091 108.722727,129.775723 108.722727,134.545455 C108.722727,138.974491 105.388744,142.624835 101.093546,143.123715 L100.086364,143.181818 C95.2302681,143.181818 91.3636364,139.315186 91.3636364,134.545455 C91.3636364,130.116418 94.6976198,126.466075 98.9928176,125.967194 L100.086364,125.909091 Z M100,56.8181818 C104.429037,56.8181818 108.07938,60.1521653 108.578261,64.447363 L108.636364,65.4545455 L108.636364,100 C108.636364,104.769732 104.769732,108.636364 100,108.636364 C95.5709632,108.636364 91.92062,105.30238 91.4217395,101.007182 L91.3636364,100 L91.3636364,65.4545455 C91.3636364,60.6848135 95.2302681,56.8181818 100,56.8181818 Z"></path></symbol><symbol viewBox="0 0 200 200" id="icon-xing"><path d="M148.989265,5 C144.896348,5 143.123015,7.57291667 141.650515,10.225 C141.650515,10.225 82.6317648,114.915 80.6763481,118.342917 C80.7950981,118.532917 119.618431,189.775 119.618431,189.775 C120.964265,192.213333 123.070098,195 127.273848,195 L154.618015,195 C156.288431,195 157.586765,194.3825 158.283431,193.258333 C158.988015,192.062917 158.988015,190.519167 158.212181,189.015 L119.586765,118.43 C119.555098,118.3825 119.555098,118.303333 119.586765,118.255833 L180.268015,10.985 C181.020098,9.47291667 181.035931,7.92125 180.315515,6.74958333 C179.610931,5.6175 178.328431,5 176.681765,5 L148.989265,5 Z M33.8809314,42.525 C32.2105148,42.525 30.8330148,43.1108333 30.1363481,44.235 C29.4238481,45.4145833 29.5188481,46.91875 30.2946814,48.43875 L48.8196814,80.50125 C48.8513481,80.5804167 48.8513481,80.6279167 48.8196814,80.6675 L19.7259314,132.070417 C18.9421814,133.55875 18.9896814,135.086667 19.7259314,136.258333 C20.3988481,137.3825 21.6180148,138.110833 23.2884314,138.110833 L50.6880148,138.110833 C54.7888481,138.110833 56.7521814,135.355833 58.1692648,132.830417 L87.7300981,80.5091667 L68.9042648,47.6154167 C67.5425981,45.1216667 65.4684314,42.3983333 61.2884314,42.3983333 L33.8809314,42.3983333 L33.8809314,42.525 Z"></path></symbol><symbol viewBox="0 0 200 200" id="icon-youtube">
  <path d="M191.033366,54.5367796 C188.793648,46.4987035 182.522576,40.2175815 174.497362,37.9742741 C159.687818,34.0001121 100.085344,34.0001121 100.085344,34.0001121 C100.085344,34.0001121 40.6333422,33.9209022 25.6733273,37.9742741 C17.6481129,40.2175815 11.3770414,46.4987035 9.13732343,54.5367796 C6.33000886,69.7231263 4.94598933,85.1390451 5.00161191,100.583401 C4.95682788,115.969478 6.34080204,131.32647 9.13732343,146.455513 C11.3770414,154.493589 17.6481129,160.774711 25.6733273,163.018018 C40.4670318,167 100.085344,167 100.085344,167 C100.085344,167 159.529427,167 174.497362,163.018018 C182.522576,160.774711 188.793648,154.493589 191.033366,146.455513 C193.771462,131.32099 195.097104,115.964043 194.993137,100.583401 C195.107941,85.1445008 193.782256,69.7286266 191.033366,54.5367796 L191.033366,54.5367796 Z M81.0626044,129.068055 L81.0626044,72.0114922 L130.670616,100.583401 L81.0626044,129.068055 Z"></path>
</symbol></defs></svg>